<svg id="_0319_rocket_boy" xmlns="http://www.w3.org/2000/svg" xmlns:xlink="http://www.w3.org/1999/xlink" viewBox="0 0 500 500" data-imageid="rocket-boy-8" imageName="Rocket Boy" class="illustrations_image" style="width: 145px;"><defs><style>.cls-1_rocket-boy-8{fill:url(#linear-gradient);}.cls-1_rocket-boy-8,.cls-2_rocket-boy-8,.cls-3_rocket-boy-8,.cls-4_rocket-boy-8,.cls-5_rocket-boy-8,.cls-6_rocket-boy-8,.cls-7_rocket-boy-8,.cls-8_rocket-boy-8,.cls-9_rocket-boy-8,.cls-10_rocket-boy-8,.cls-11_rocket-boy-8,.cls-12_rocket-boy-8,.cls-13_rocket-boy-8,.cls-14_rocket-boy-8,.cls-15_rocket-boy-8,.cls-16_rocket-boy-8,.cls-17_rocket-boy-8,.cls-18_rocket-boy-8,.cls-19_rocket-boy-8,.cls-20_rocket-boy-8,.cls-21_rocket-boy-8{stroke-width:0px;}.cls-2_rocket-boy-8{opacity:.59;}.cls-2_rocket-boy-8,.cls-3_rocket-boy-8{isolation:isolate;}.cls-2_rocket-boy-8,.cls-3_rocket-boy-8,.cls-21_rocket-boy-8{fill:#68e1fd;}.cls-3_rocket-boy-8{opacity:.18;}.cls-4_rocket-boy-8{fill:url(#linear-gradient-11-rocket-boy-8);}.cls-5_rocket-boy-8{fill:url(#linear-gradient-12-rocket-boy-8);}.cls-6_rocket-boy-8{fill:url(#linear-gradient-13-rocket-boy-8);}.cls-7_rocket-boy-8{fill:url(#linear-gradient-10-rocket-boy-8);}.cls-8_rocket-boy-8{fill:url(#linear-gradient-15-rocket-boy-8);}.cls-9_rocket-boy-8{fill:url(#linear-gradient-14-rocket-boy-8);}.cls-10_rocket-boy-8{fill:url(#linear-gradient-4-rocket-boy-8);}.cls-11_rocket-boy-8{fill:url(#linear-gradient-2-rocket-boy-8);}.cls-12_rocket-boy-8{fill:url(#linear-gradient-3-rocket-boy-8);}.cls-13_rocket-boy-8{fill:url(#linear-gradient-8-rocket-boy-8);}.cls-14_rocket-boy-8{fill:url(#linear-gradient-9-rocket-boy-8);}.cls-15_rocket-boy-8{fill:url(#linear-gradient-7-rocket-boy-8);}.cls-16_rocket-boy-8{fill:url(#linear-gradient-5-rocket-boy-8);}.cls-17_rocket-boy-8{fill:url(#linear-gradient-6-rocket-boy-8);}.cls-18_rocket-boy-8{fill:#3f3d56;}.cls-19_rocket-boy-8{fill:#fff;}.cls-20_rocket-boy-8{fill:#ffaa71;}</style><linearGradient id="linear-gradient-rocket-boy-8" x1="785.89" y1="2821.82" x2="808.4" y2="2796.21" gradientTransform="translate(-509.85 3020.46) scale(1 -1)" gradientUnits="userSpaceOnUse"><stop offset="0" stop-color="#231f20" stop-opacity="0"/><stop offset="1" stop-color="#231f20"/></linearGradient><linearGradient id="linear-gradient-2-rocket-boy-8" x1="772.94" y1="2856.8" x2="775.48" y2="2834.28" xlink:href="#linear-gradient-rocket-boy-8"/><linearGradient id="linear-gradient-3-rocket-boy-8" x1="873.44" y1="2904.38" x2="870.43" y2="2946.02" xlink:href="#linear-gradient-rocket-boy-8"/><linearGradient id="linear-gradient-4-rocket-boy-8" x1="808.79" y1="2844.26" x2="793.02" y2="2904.48" xlink:href="#linear-gradient-rocket-boy-8"/><linearGradient id="linear-gradient-5-rocket-boy-8" x1="815.98" y1="2729.05" x2="852.02" y2="2729.05" xlink:href="#linear-gradient-rocket-boy-8"/><linearGradient id="linear-gradient-6-rocket-boy-8" x1="679.14" y1="2764.04" x2="710.64" y2="2764.04" xlink:href="#linear-gradient-rocket-boy-8"/><linearGradient id="linear-gradient-7-rocket-boy-8" x1="825.88" y1="2850.5" x2="875.12" y2="2868.78" xlink:href="#linear-gradient-rocket-boy-8"/><linearGradient id="linear-gradient-8-rocket-boy-8" x1="648.11" y1="2732.45" x2="637.98" y2="2661.55" gradientTransform="translate(-509.85 3020.46) scale(1 -1)" gradientUnits="userSpaceOnUse"><stop offset=".02" stop-color="#fff" stop-opacity="0"/><stop offset=".58" stop-color="#fff" stop-opacity=".39"/><stop offset=".68" stop-color="#fff" stop-opacity=".68"/><stop offset="1" stop-color="#fff"/></linearGradient><linearGradient id="linear-gradient-9-rocket-boy-8" x1="693.38" y1="2714.66" x2="687.98" y2="2676.79" xlink:href="#linear-gradient-8-rocket-boy-8"/><linearGradient id="linear-gradient-10-rocket-boy-8" x1="712.03" y1="2723.56" x2="708.31" y2="2697.54" xlink:href="#linear-gradient-8-rocket-boy-8"/><linearGradient id="linear-gradient-11-rocket-boy-8" x1="858.1" y1="2647.8" x2="858.84" y2="2736.35" xlink:href="#linear-gradient-rocket-boy-8"/><linearGradient id="linear-gradient-12-rocket-boy-8" x1="717.64" y1="2804.3" x2="732.55" y2="2829.35" gradientTransform="translate(-471 3093.94) scale(1 -1)" xlink:href="#linear-gradient-rocket-boy-8"/><linearGradient id="linear-gradient-13-rocket-boy-8" x1="716.99" y1="2734.12" x2="734.72" y2="2713.3" gradientTransform="translate(-471 3093.94) scale(1 -1)" xlink:href="#linear-gradient-rocket-boy-8"/><linearGradient id="linear-gradient-14-rocket-boy-8" x1="716.77" y1="2798.6" x2="721.67" y2="2726.07" gradientTransform="translate(-471 3093.94) scale(1 -1)" xlink:href="#linear-gradient-rocket-boy-8"/><linearGradient id="linear-gradient-15-rocket-boy-8" x1="880.52" y1="2798.6" x2="885.43" y2="2726.07" gradientTransform="translate(-471 3093.94) scale(1 -1)" xlink:href="#linear-gradient-rocket-boy-8"/></defs><path id="background_rocket-boy-8" class="cls-3_rocket-boy-8 targetColor" d="M410.84,69.75c-18.87-14.77-43.39-20.71-67.28-21.36-28.99-.79-57.73,5.44-83.78,18.18-19.81,9.66-37.62,22.97-56.6,34.11-39.84,23.36-84.86,37.34-123.28,62.98-38.42,25.64-70.93,68.27-65.45,114.12,5.16,43.29,42.86,76.41,83.41,92.42,40.54,16.01,84.86,19.08,127.46,28.27,39.04,8.42,79.72,22.09,117.84,10.19,20.35-6.35,37.94-19.52,57.98-26.64,24.56-8.71,54.12-9.24,71.51-28.63,13.54-15.09,15.27-37.6,11.69-57.55-4.14-23.3-14.05-45.13-16.81-68.75-2.37-20.27,1.78-39.97.92-60.06-1.39-33.42-31.97-77.35-57.61-97.28Z" style="fill: rgb(125, 104, 253);"/><g id="character_rocket-boy-8"><path class="cls-20_rocket-boy-8" d="M222.68,231.75c-11.23,3.73-22.15,8.35-32.65,13.8-1.69.73-3.19,1.85-4.36,3.27-1.15,1.49-1.15,3.57,0,5.07,1.16,1.19,3.04,1.2,4.69,1.12,20.68-1.01,41.15-4.66,60.91-10.86.68-.15,1.3-.48,1.81-.95.94-1.05.48-2.76-.17-3.98-6.43-12.53-18.72-11.28-30.23-7.47Z"/><path class="cls-20_rocket-boy-8" d="M313.04,285.99c-.35.78,0,1.69.78,2.04.26.12.54.16.82.12l5.52.91c1.17.44,2.48-.15,2.92-1.32.02-.05.03-.1.05-.15,2.76-5.23,5.4-10.6,8.66-15.56,6.65-10.09,16.15-18.44,20.61-29.68,1.26-3.33,2.19-6.78,2.76-10.3.98-5.65,1.1-12.24-3.08-16.15-.55-.62-1.33-.98-2.15-1.01-.61.09-1.18.35-1.66.75-4.14,2.87-10.46,5.72-13.65,9.66-2.51,3.16-4.14,8.09-5.87,11.73-4.82,10.01-8.75,20.43-11.73,31.13-1.6,5.87-2.93,11.81-3.98,17.81Z"/><path class="cls-18_rocket-boy-8" d="M256.16,209.81c-2.46,3.26-4.9,6.5-7.59,9.55-2.58,2.92-5.38,5.65-8.38,8.14-.59.4-1.04.97-1.27,1.64-.04.97.37,1.91,1.1,2.54,2.76,3.08,5.62,6.05,8.63,8.86,1.9,2.72,5.64,3.38,8.36,1.48.05-.03.09-.07.14-.1,14.18-7.15,26.23-17.84,40.03-25.7.57-.38,1.22-.64,1.89-.76.74-.04,1.48.07,2.17.35,10.64,3.33,21.08,7.3,31.25,11.87.88.48,1.86.74,2.86.77,1.17-.17,2.26-.68,3.13-1.48,4.54-3.36,8.79-7.09,12.71-11.15.69-.6,1.18-1.41,1.38-2.31-.01-1.08-.44-2.11-1.19-2.89-7.37-9.73-16.72-17.78-27.43-23.63-8.55-4.88-18.11-7.72-27.94-8.28-7.29-.25-18.14.48-23.47,6.38-2.64,2.94-4.42,6.9-6.45,10.2-3.07,5-6.39,9.84-9.95,14.51Z"/><path class="cls-1_rocket-boy-8" d="M256.16,209.81c-2.46,3.26-4.9,6.5-7.59,9.55-2.58,2.92-5.38,5.65-8.38,8.14-.59.4-1.04.97-1.27,1.64-.04.97.37,1.91,1.1,2.54,2.76,3.08,5.62,6.05,8.63,8.86,1.9,2.72,5.64,3.38,8.36,1.48.05-.03.09-.07.14-.1,14.18-7.15,26.23-17.84,40.03-25.7.57-.38,1.22-.64,1.89-.76.74-.04,1.48.07,2.17.35,10.64,3.33,21.08,7.3,31.25,11.87.88.48,1.86.74,2.86.77,1.17-.17,2.26-.68,3.13-1.48,4.54-3.36,8.79-7.09,12.71-11.15.69-.6,1.18-1.41,1.38-2.31-.01-1.08-.44-2.11-1.19-2.89-7.37-9.73-16.72-17.78-27.43-23.63-8.55-4.88-18.11-7.72-27.94-8.28-7.29-.25-18.14.48-23.47,6.38-2.64,2.94-4.42,6.9-6.45,10.2-3.07,5-6.39,9.84-9.95,14.51Z"/><path class="cls-18_rocket-boy-8" d="M247.49,182.95c3.84-.79,7.51-2.28,11.36-2.93,10.8-1.82,21.66,3.09,32.59,2.66.62.06,1.24-.17,1.68-.61.24-.42.33-.9.26-1.38l-.41-10.23c.07-2.97-.44-5.93-1.52-8.7-2.53-5.52-9.11-8.06-15.12-7.7-6.01.36-11.58,3.05-16.98,5.7l-13.39,6.52c-3.08,1.52-7.28,3.09-9.19,6.18-1.21,1.99-1.95,7.04-.54,8.96,1.97,2.79,8.45,2.02,11.25,1.52Z"/><path class="cls-11_rocket-boy-8" d="M247.49,182.95c3.84-.79,7.51-2.28,11.36-2.93,10.8-1.82,21.66,3.09,32.59,2.66.62.06,1.24-.17,1.68-.61.24-.42.33-.9.26-1.38l-.41-10.23c.07-2.97-.44-5.93-1.52-8.7-2.53-5.52-9.11-8.06-15.12-7.7-6.01.36-11.58,3.05-16.98,5.7l-13.39,6.52c-3.08,1.52-7.28,3.09-9.19,6.18-1.21,1.99-1.95,7.04-.54,8.96,1.97,2.79,8.45,2.02,11.25,1.52Z"/><path class="cls-20_rocket-boy-8" d="M386.5,117.66c.45.59.68,1.32.66,2.06-.23.68-.8,1.17-1.5,1.3-.68.17-1.38.12-2.07.23-2.6.44-4.28,2.86-5.81,5-1.53,2.14-3.66,4.38-6.28,4.14-1.3-.3-2.55-.76-3.73-1.38-3.41-1.01-7.1-.51-10.12,1.38-1.38.8-3.02,1.82-4.64,1.38-1.44-.51-2.55-1.67-2.98-3.13-.84-2.31-1.2-4.77-1.05-7.22-.02-.9.14-1.8.5-2.64.64-1.38,1.99-2.07,2.97-3.15.76-.9,1.4-1.89,1.91-2.95,1.65-3.04,3.5-5.98,5.52-8.79,2.76-3.91,6.31-7.8,11.04-8.84,3.97-.65,8.03.28,11.32,2.6,2.95,1.91,4.38,5.69,4.61,9.14s-2.2,7.28-.35,10.88Z"/><path class="cls-18_rocket-boy-8" d="M389.84,99.9c1.21,1.38,2.51,3.06,1.88,4.75-.72,1.36-2.2,2.14-3.73,1.96-2.97-.14-5.52-2.15-8.13-3.45-3-1.46-6.34-2.07-9.66-1.75-.39.01-.76.12-1.1.3-.39.31-.68.72-.86,1.19l-3.4,7.34c-.69-.57-.57-1.63-.46-2.51.11-.88-.08-2.04-.95-2.26-.36-.06-.72,0-1.04.18-1.76.86-2.65,2.87-2.1,4.75.15.47.35,1.06,0,1.38-.26.15-.56.2-.86.15-1.46,0-2.55,1.27-3.53,2.36s-2.32,2.19-3.73,1.84c-.32-.06-.6-.24-.79-.51-.15-.4-.15-.84,0-1.24l.59-3.23c.31-1.01.26-2.1-.12-3.08-.65-.89-1.54-1.57-2.57-1.96-.97-.54-1.96-1.38-1.95-2.46.16-1.05.91-1.91,1.92-2.22,1-.27,1.98-.59,2.94-.97-.67-1.76-.57-3.73.29-5.41.93-1.1,2.19-1.87,3.59-2.22,3.36-1.14,6.82-1.93,10.34-2.36,2.89-.48,5.85-.3,8.66.52,1.24.48,2.44,1.05,3.59,1.73,0,.57,5.4,3,6.07,3.38,1.91.96,3.63,2.25,5.09,3.81Z"/><path class="cls-21_rocket-boy-8 targetColor" d="M390.34,95.98l-.14-3.59c.31-3.25-1.4-6.35-4.31-7.83-2.31-1.84-4.86-3.36-7.58-4.5-4.91-1.76-10.35-1.16-14.76,1.62-3.2,2.21-5.82,5.17-7.63,8.61-.46,1.08-1.21,2-2.18,2.66-.76.32-1.58.48-2.4.47-4.85.25-10.06.4-14.08-2.29-.6-.52-1.35-.84-2.14-.92-1.15.26-1.88,1.4-1.62,2.56.03.11.06.22.1.33.57,1.16,1.55,2.05,2.76,2.5,4.54,2.19,9.79,2.15,14.84,2.37,8.39.39,16.73,1.64,25.07,2.76,3.54.52,7.11.82,10.68.88,3.11.03,3.49-2.87,3.38-5.63Z" style="fill: rgb(125, 104, 253);"/><path class="cls-12_rocket-boy-8" d="M390.34,95.98l-.14-3.59c.31-3.25-1.4-6.35-4.31-7.83-2.31-1.84-4.86-3.36-7.58-4.5-4.91-1.76-10.35-1.16-14.76,1.62-3.2,2.21-5.82,5.17-7.63,8.61-.46,1.08-1.21,2-2.18,2.66-.76.32-1.58.48-2.4.47-4.85.25-10.06.4-14.08-2.29-.6-.52-1.35-.84-2.14-.92-1.15.26-1.88,1.4-1.62,2.56.03.11.06.22.1.33.57,1.16,1.55,2.05,2.76,2.5,4.54,2.19,9.79,2.15,14.84,2.37,8.39.39,16.73,1.64,25.07,2.76,3.54.52,7.11.82,10.68.88,3.11.03,3.49-2.87,3.38-5.63Z"/><path class="cls-19_rocket-boy-8" d="M353.92,130.25c-2.64,9.07-12.58,14.25-16.23,22.94-.87,2.07-1.38,4.27-2.06,6.39-2.65,8.02-8.28,14.7-11.5,22.52-1.12,2.76-2.03,5.73-4.33,7.57-1.91,1.38-4.27,2-6.61,1.77-8.64-.54-15.3-8.5-23.87-9.66-5.09-.69-10.16,1.12-14.99,2.91.58-8.13,1.83-16.2,3.75-24.12,1.94-7.95,5.78-15.32,11.18-21.47,2.69-2.9,5.83-5.37,8.39-8.38,1.59-1.86,10.84,3.04,12.65,1.38,1.52-1.38-4.57-9.4-2.76-10.3,6.12-2.74,12.55-4.69,19.16-5.81,7.03-1.38,14.73-2.58,21.05.81,3.32,1.73,5.8,4.71,6.9,8.28,1.03,3.65.08,7.57-2.51,10.34"/><path class="cls-20_rocket-boy-8" d="M392.92,196.75c.76.3,1.53.57,2.31.86,2.58,1.01,4.94,2.49,6.97,4.38,1.79,1.6,3.4,3.4,4.8,5.36,2.73,4.03,2.95,9.24.58,13.49-.33.67-.9,1.2-1.6,1.46-1.12.12-2.23-.32-2.95-1.19-2.73-2.45-5.04-5.35-6.82-8.56-1.38-2.51-3.04-5.62-5.91-5.69-.65.06-1.3.06-1.95,0-.68-.2-1.3-.56-1.81-1.05-6.9-5.62-13.5-11.86-21.66-15.38-3.89-1.68-8.28-2.9-10.8-6.35-.3-.3-.46-.71-.44-1.13.59-3.85,5.14-9.33,9.25-9.04,3.26.25,4.74,2.86,6.99,4.71,2.68,2.21,22.89,18.14,23.04,18.14Z"/><path class="cls-21_rocket-boy-8 targetColor" d="M297.47,164.64c-10.33.21-20.71-.9-30.94.92-10.16,1.84-19.58,6.52-27.18,13.5-.53.6-1.23,1.03-2,1.24-1.38.22-2.53-1.02-3.24-2.22-3.31-5.52-3.3-12.42-2.76-18.86.64-7.59,1.97-15.42,6.25-21.73,1.4-2.17,3.24-4.03,5.41-5.44,3.24-1.78,6.86-2.77,10.56-2.9,12.29-1.04,24.56,1.24,36.86,1.91,3.51.38,7.06.06,10.44-.95,4.91-1.78,8.49-6.03,12.94-8.77,5.63-3.47,12.42-4.39,19-4.94,3.68-.52,7.43-.32,11.04.58,3.52,1.09,6.79,3.74,7.61,7.34.81,3.6-.88,7.16-2.64,10.37-1.33,2.65-3.03,5.1-5.04,7.29-3.3,3.33-7.65,5.25-11.54,7.77-3.31,2.17-5.15,4.9-7.85,7.58-6.41,6.28-18.47,7.12-26.91,7.3Z" style="fill: rgb(125, 104, 253);"/><path class="cls-10_rocket-boy-8" d="M297.47,164.64c-10.33.21-20.71-.9-30.94.92-10.16,1.84-19.58,6.52-27.18,13.5-.53.6-1.23,1.03-2,1.24-1.38.22-2.53-1.02-3.24-2.22-3.31-5.52-3.3-12.42-2.76-18.86.64-7.59,1.97-15.42,6.25-21.73,1.4-2.17,3.24-4.03,5.41-5.44,3.24-1.78,6.86-2.77,10.56-2.9,12.29-1.04,24.56,1.24,36.86,1.91,3.51.38,7.06.06,10.44-.95,4.91-1.78,8.49-6.03,12.94-8.77,5.63-3.47,12.42-4.39,19-4.94,3.68-.52,7.43-.32,11.04.58,3.52,1.09,6.79,3.74,7.61,7.34.81,3.6-.88,7.16-2.64,10.37-1.33,2.65-3.03,5.1-5.04,7.29-3.3,3.33-7.65,5.25-11.54,7.77-3.31,2.17-5.15,4.9-7.85,7.58-6.41,6.28-18.47,7.12-26.91,7.3Z"/><path class="cls-18_rocket-boy-8" d="M310.68,283.21c-2.04,4.02-3.51,8.3-4.36,12.73-.29,1.56-.41,3.44.79,4.46.91.61,2,.89,3.09.79l29.38.64c.67.08,1.35-.06,1.92-.41.47-.47.71-1.12.66-1.78,0-2.87-2.13-5.36-4.58-6.9-2.46-1.55-5.3-2.26-7.84-3.62-.44-.21-.83-.51-1.16-.87-1.26-1.55.22-3.7.92-5.52.11-.23.15-.48.14-.73-.17-.61-.74-1.03-1.38-1.01-1.99-.11-3.4,2.08-5.36,2.42-.86.08-1.73-.03-2.55-.3-1.49-.39-9.66-3.93-9.66.12Z"/><path class="cls-18_rocket-boy-8" d="M186.23,241.44c-1.74-.01-3.46.41-5,1.23-1.34,1.02-2.42,2.34-3.16,3.85-2.85,4.97-5.38,10.12-7.57,15.42-.98,2.39-1.86,5.2-.57,7.43,1.29,1.85,3.53,2.8,5.76,2.44,2.17-.39,4.24-1.23,6.07-2.46,2.68-1.44,5.13-3.27,7.29-5.41,1.7-1.82,3.16-4.14,5.52-4.89,1.79-.59,3.88-.22,5.52-1.15.31-.14.54-.39.66-.7.15-.58-.41-1.08-.92-1.38l-2.19-1.5c-.87-.49-1.62-1.17-2.21-1.97-2.03-3.16,1.68-6.9.25-9.86-1.24-2.55-7.05-1.21-9.46-1.05Z"/><path class="cls-16_rocket-boy-8" d="M310.68,283.21c-2.04,4.02-3.51,8.3-4.36,12.73-.29,1.56-.41,3.44.79,4.46.91.61,2,.89,3.09.79l29.38.64c.67.08,1.35-.06,1.92-.41.47-.47.71-1.12.66-1.78,0-2.87-2.13-5.36-4.58-6.9-2.46-1.55-5.3-2.26-7.84-3.62-.44-.21-.83-.51-1.16-.87-1.26-1.55.22-3.7.92-5.52.11-.23.15-.48.14-.73-.17-.61-.74-1.03-1.38-1.01-1.99-.11-3.4,2.08-5.36,2.42-.86.08-1.73-.03-2.55-.3-1.49-.39-9.66-3.93-9.66.12Z"/><path class="cls-17_rocket-boy-8" d="M186.23,241.44c-1.74-.01-3.46.41-5,1.23-1.34,1.02-2.42,2.34-3.16,3.85-2.85,4.97-5.38,10.12-7.57,15.42-.98,2.39-1.86,5.2-.57,7.43,1.29,1.85,3.53,2.8,5.76,2.44,2.17-.39,4.24-1.23,6.07-2.46,2.68-1.44,5.13-3.27,7.29-5.41,1.7-1.82,3.16-4.14,5.52-4.89,1.79-.59,3.88-.22,5.52-1.15.31-.14.54-.39.66-.7.15-.58-.41-1.08-.92-1.38l-2.19-1.5c-.87-.49-1.62-1.17-2.21-1.97-2.03-3.16,1.68-6.9.25-9.86-1.24-2.55-7.05-1.21-9.46-1.05Z"/><path class="cls-21_rocket-boy-8 targetColor" d="M342.16,128.1c-.07-.43.68-.23.94.11,4.67,6.53,7.25,14.27,10.27,21.7,3.02,7.43,6.75,14.92,13.02,19.93,2.57,2.07,5.81,4.14,5.98,7.47.11,2.57-1.77,4.74-3.52,6.6-4.14,4.38-9.01,9.08-15.01,8.86-.64-2.35-2.86-3.82-4.72-5.37-7.3-6.03-10.82-15.48-17.1-22.57-3.12-3.52-7-6.6-8.78-10.95-2.39-5.88-.35-12.6,2.4-18.32,1.25-2.93,3.04-5.6,5.29-7.87,2.28-2.27,5.45-3.42,8.66-3.15,3.26.38,5.82,2.95,6.2,6.21" style="fill: rgb(125, 104, 253);"/><path class="cls-15_rocket-boy-8" d="M342.16,128.1c-.07-.43.68-.23.94.11,4.67,6.53,7.25,14.27,10.27,21.7,3.02,7.43,6.75,14.92,13.02,19.93,2.57,2.07,5.81,4.14,5.98,7.47.11,2.57-1.77,4.74-3.52,6.6-4.14,4.38-9.01,9.08-15.01,8.86-.64-2.35-2.86-3.82-4.72-5.37-7.3-6.03-10.82-15.48-17.1-22.57-3.12-3.52-7-6.6-8.78-10.95-2.39-5.88-.35-12.6,2.4-18.32,1.25-2.93,3.04-5.6,5.29-7.87,2.28-2.27,5.45-3.42,8.66-3.15,3.26.38,5.82,2.95,6.2,6.21"/></g><g id="rocket_rocket-boy-8"><path class="cls-2_rocket-boy-8 targetColor" d="M238.18,312.27c-11.45-11.99-28.34-17.12-44.52-13.53-6.47,1.52-12.56,4.42-19.02,5.98-15.09,3.49-30.94-.4-42.7-10.48,3.7,12.3,12.61,22.35,24.38,27.49-11.15-.1-21.78-4.5-31.75-9.44-15.19-7.51-30.56-16.57-47.56-17.16-19.99-.61-38.12,10.68-54.43,22.32,12.45-6.66,26.86-8.66,40.66-5.65,30.37,6.78,52.72,36.78,83.73,39.33,18.18,1.49,35.59-6.9,51.48-15.88-5.51,7.66-10.08,15.96-13.61,24.71,13.36-11.26,35.35-5.72,49.01-16.63,5.12-4.36,8.68-10.26,10.16-16.81,1.2-3.97,1.2-8.22,0-12.19-1.38-3.88-4.89-7.19-9-7.4" style="fill: rgb(125, 104, 253);"/><path class="cls-13_rocket-boy-8" d="M238.18,312.27c-11.45-11.99-28.34-17.12-44.52-13.53-6.47,1.52-12.56,4.42-19.02,5.98-15.09,3.49-30.94-.4-42.7-10.48,3.7,12.3,12.61,22.35,24.38,27.49-11.15-.1-21.78-4.5-31.75-9.44-15.19-7.51-30.56-16.57-47.56-17.16-19.99-.61-38.12,10.68-54.43,22.32,12.45-6.66,26.86-8.66,40.66-5.65,30.37,6.78,52.72,36.78,83.73,39.33,18.18,1.49,35.59-6.9,51.48-15.88-5.51,7.66-10.08,15.96-13.61,24.71,13.36-11.26,35.35-5.72,49.01-16.63,5.12-4.36,8.68-10.26,10.16-16.81,1.2-3.97,1.2-8.22,0-12.19-1.38-3.88-4.89-7.19-9-7.4"/><path class="cls-14_rocket-boy-8" d="M236.8,318.75c-6.11-6.4-15.13-9.14-23.77-7.22-3.45.81-6.7,2.35-10.15,3.19-8.06,1.87-16.52-.21-22.81-5.59,1.99,6.55,6.75,11.9,13.02,14.63-5.95,0-11.62-2.42-16.97-5.04-8.14-4.02-16.32-8.89-25.4-9.17-10.66-.33-20.36,5.73-28.99,11.91,6.64-3.56,14.34-4.63,21.7-3.01,16.22,3.62,28.16,19.63,44.71,21,9.66.8,19.01-3.7,27.49-8.48-2.94,4.09-5.38,8.52-7.26,13.2,7.12-6.02,18.87-3.05,26.23-8.88,2.73-2.33,4.63-5.48,5.43-8.99.64-2.12.64-4.38,0-6.5-.69-2.15-2.58-3.69-4.82-3.95"/><path class="cls-7_rocket-boy-8" d="M236.81,320.1c-4.2-4.4-10.4-6.28-16.33-4.96-2.37.55-4.61,1.62-6.99,2.18-5.54,1.27-11.35-.15-15.67-3.84,1.36,4.51,4.63,8.2,8.95,10.09-4.1-.27-8.08-1.46-11.67-3.47-5.52-2.76-11.21-6.1-17.45-6.3-7.33-.23-14,3.93-19.96,8.19,4.57-2.45,9.86-3.18,14.92-2.07,11.14,2.48,19.33,13.5,30.72,14.43,6.67.55,13.06-2.54,18.89-5.83-2.01,2.82-3.69,5.86-4.98,9.07,4.9-4.14,12.98-2.1,17.95-6.1,1.88-1.6,3.19-3.76,3.74-6.17.44-1.46.44-3.01,0-4.47-.45-1.49-1.75-2.58-3.3-2.76"/><path class="cls-21_rocket-boy-8 targetColor" d="M461.17,333.42c-14.29,9.66-45.56,16.26-45.56,16.26l-178.81.76-.37-23.47-.33-25.3c3.8-.76,175.76-3.05,175.76-3.05,18.38.52,36.17,6.63,51,17.52,8.61,6.24,5.77,12.16-1.68,17.28Z" style="fill: rgb(125, 104, 253);"/><path class="cls-4_rocket-boy-8" d="M461.17,333.42c-14.29,9.66-45.56,16.26-45.56,16.26l-178.81.76-.76-23.39h.39c9.8-.39,175.32-1.38,175.32-1.38,16.77.12,33.42,2.73,49.42,7.74Z"/><polygon class="cls-21_rocket-boy-8 targetColor" points="236.1 301.67 217.45 274.93 236.58 274.93 277.94 300.81 236.1 301.67" style="fill: rgb(125, 104, 253);"/><polygon class="cls-21_rocket-boy-8 targetColor" points="237.04 349.54 218.38 375.86 237.52 375.86 278.88 349.97 237.04 349.54" style="fill: rgb(125, 104, 253);"/><polygon class="cls-5_rocket-boy-8" points="236.1 301.67 217.45 274.93 236.58 274.93 277.94 300.81 236.1 301.67"/><polygon class="cls-6_rocket-boy-8" points="237.04 349.54 218.38 375.86 237.52 375.86 278.88 349.97 237.04 349.54"/><rect class="cls-9_rocket-boy-8" x="243.62" y="298.7" width="8.26" height="51.77"/><rect class="cls-8_rocket-boy-8" x="407.37" y="298.7" width="8.26" height="51.77"/></g></svg>