<svg xmlns="http://www.w3.org/2000/svg" viewBox="0 0 500 500" width="145" height="150" xmlns:v="https://vecta.io/nano"><style><![CDATA[.M,.A{isolation:isolate}]]></style><defs><linearGradient id="A" gradientUnits="userSpaceOnUse"><stop offset="0" stop-color="#231f20" stop-opacity="0"/><stop offset="1" stop-color="#231f20"/></linearGradient><linearGradient id="B" x1="263.09" y1="163.66" x2="265.63" y2="186.18" href="#A"/><linearGradient id="C" x1="363.59" y1="116.08" x2="360.58" y2="74.44" href="#A"/><linearGradient id="D" x1="298.94" y1="176.2" x2="283.17" y2="115.98" href="#A"/><linearGradient id="E" x1="306.13" y1="291.41" x2="342.17" y2="291.41" href="#A"/><linearGradient id="F" x1="169.29" y1="256.42" x2="200.79" y2="256.42" href="#A"/><linearGradient id="G" x1="316.03" y1="169.96" x2="365.27" y2="151.68" href="#A"/><linearGradient id="H" x1="138.26" y1="288.01" x2="128.13" y2="358.91" gradientUnits="userSpaceOnUse"><stop offset=".02" stop-color="#fff" stop-opacity="0"/><stop offset=".58" stop-color="#fff" stop-opacity=".39"/><stop offset=".68" stop-color="#fff" stop-opacity=".68"/><stop offset="1" stop-color="#fff"/></linearGradient><linearGradient id="I" x1="183.53" y1="305.8" x2="178.13" y2="343.67" href="#H"/><linearGradient id="J" x1="202.18" y1="296.9" x2="198.46" y2="322.92" href="#H"/><linearGradient id="K" x1="348.25" y1="372.66" x2="348.99" y2="284.11" href="#A"/><linearGradient id="L" x1="246.64" y1="289.64" x2="261.55" y2="264.59" href="#A"/><linearGradient id="M" x1="245.99" y1="359.82" x2="263.72" y2="380.64" href="#A"/><linearGradient id="N" x1="245.77" y1="295.34" x2="250.67" y2="367.87" href="#A"/><linearGradient id="O" x1="409.52" y1="295.34" x2="414.43" y2="367.87" href="#A"/><path id="P" d="M256.16 209.81c-2.46 3.26-4.9 6.5-7.59 9.55a75.8 75.8 0 0 1-8.38 8.14c-.59.4-1.04.97-1.27 1.64a3.19 3.19 0 0 0 1.1 2.54c2.76 3.08 5.62 6.05 8.63 8.86a6 6 0 0 0 8.36 1.48c.05-.03.09-.07.14-.1 14.18-7.15 26.23-17.84 40.03-25.7a5.02 5.02 0 0 1 1.89-.76c.74-.04 1.48.07 2.17.35a281.14 281.14 0 0 1 31.25 11.87c.88.48 1.86.74 2.86.77 1.17-.17 2.26-.68 3.13-1.48a102.08 102.08 0 0 0 12.71-11.15 4.31 4.31 0 0 0 1.38-2.31c-.01-1.08-.44-2.11-1.19-2.89-7.37-9.73-16.72-17.78-27.43-23.63a63.67 63.67 0 0 0-27.94-8.28c-7.29-.25-18.14.48-23.47 6.38-2.64 2.94-4.42 6.9-6.45 10.2-3.07 5-6.39 9.84-9.95 14.51z"/><path id="Q" d="M247.49 182.95c3.84-.79 7.51-2.28 11.36-2.93 10.8-1.82 21.66 3.09 32.59 2.66.62.06 1.24-.17 1.68-.61a2.14 2.14 0 0 0 .26-1.38l-.41-10.23c.07-2.97-.44-5.93-1.52-8.7-2.53-5.52-9.11-8.06-15.12-7.7s-11.58 3.05-16.98 5.7l-13.39 6.52c-3.08 1.52-7.28 3.09-9.19 6.18-1.21 1.99-1.95 7.04-.54 8.96 1.97 2.79 8.45 2.02 11.25 1.52z"/><path id="R" d="M390.34,95.98l-.14-3.59c.31-3.25-1.4-6.35-4.31-7.83-2.31-1.84-4.86-3.36-7.58-4.5-4.91-1.76-10.35-1.16-14.76,1.62-3.2,2.21-5.82,5.17-7.63,8.61-.46,1.08-1.21,2-2.18,2.66-.76.32-1.58.48-2.4.47-4.85.25-10.06.4-14.08-2.29-.6-.52-1.35-.84-2.14-.92-1.15.26-1.88,1.4-1.62,2.56.03.11.06.22.1.33.57,1.16,1.55,2.05,2.76,2.5,4.54,2.19,9.79,2.15,14.84,2.37,8.39.39,16.73,1.64,25.07,2.76,3.54.52,7.11.82,10.68.88,3.11.03,3.49-2.87,3.38-5.63Z"/><path id="S" d="M297.47 164.64c-10.33.21-20.71-.9-30.94.92a54.54 54.54 0 0 0-27.18 13.5c-.53.6-1.23 1.03-2 1.24-1.38.22-2.53-1.02-3.24-2.22-3.31-5.52-3.3-12.42-2.76-18.86.64-7.59 1.97-15.42 6.25-21.73a18.34 18.34 0 0 1 5.41-5.44 23.66 23.66 0 0 1 10.56-2.9c12.29-1.04 24.56 1.24 36.86 1.91a26.5 26.5 0 0 0 10.44-.95c4.91-1.78 8.49-6.03 12.94-8.77 5.63-3.47 12.42-4.39 19-4.94a28.92 28.92 0 0 1 11.04.58c3.52 1.09 6.79 3.74 7.61 7.34.81 3.6-.88 7.16-2.64 10.37-1.33 2.65-3.03 5.1-5.04 7.29-3.3 3.33-7.65 5.25-11.54 7.77-3.31 2.17-5.15 4.9-7.85 7.58-6.41 6.28-18.47 7.12-26.91 7.3z"/><path id="T" d="M310.68,283.21c-2.04,4.02-3.51,8.3-4.36,12.73-.29,1.56-.41,3.44.79,4.46.91.61,2,.89,3.09.79l29.38.64c.67.08,1.35-.06,1.92-.41.47-.47.71-1.12.66-1.78,0-2.87-2.13-5.36-4.58-6.9-2.46-1.55-5.3-2.26-7.84-3.62-.44-.21-.83-.51-1.16-.87-1.26-1.55.22-3.7.92-5.52.11-.23.15-.48.14-.73-.17-.61-.74-1.03-1.38-1.01-1.99-.11-3.4,2.08-5.36,2.42-.86.08-1.73-.03-2.55-.3-1.49-.39-9.66-3.93-9.66.12Z"/><path id="U" d="M186.23 241.44a10.51 10.51 0 0 0-5 1.23 10.82 10.82 0 0 0-3.16 3.85 133.44 133.44 0 0 0-7.57 15.42c-.98 2.39-1.86 5.2-.57 7.43a5.88 5.88 0 0 0 5.76 2.44 15.95 15.95 0 0 0 6.07-2.46c2.68-1.44 5.13-3.27 7.29-5.41 1.7-1.82 3.16-4.14 5.52-4.89 1.79-.59 3.88-.22 5.52-1.15a1.26 1.26 0 0 0 .66-.7c.15-.58-.41-1.08-.92-1.38l-2.19-1.5c-.87-.49-1.62-1.17-2.21-1.97-2.03-3.16 1.68-6.9.25-9.86-1.24-2.55-7.05-1.21-9.46-1.05z"/><path id="V" d="M342.16 128.1c-.07-.43.68-.23.94.11 4.67 6.53 7.25 14.27 10.27 21.7s6.75 14.92 13.02 19.93c2.57 2.07 5.81 4.14 5.98 7.47.11 2.57-1.77 4.74-3.52 6.6-4.14 4.38-9.01 9.08-15.01 8.86-.64-2.35-2.86-3.82-4.72-5.37-7.3-6.03-10.82-15.48-17.1-22.57-3.12-3.52-7-6.6-8.78-10.95-2.39-5.88-.35-12.6 2.4-18.32a25.24 25.24 0 0 1 5.29-7.87c2.28-2.27 5.45-3.42 8.66-3.15 3.26.38 5.82 2.95 6.2 6.21"/><path id="W" d="M238.18 312.27a47.38 47.38 0 0 0-44.52-13.53c-6.47 1.52-12.56 4.42-19.02 5.98-15.09 3.49-30.94-.4-42.7-10.48 3.7 12.3 12.61 22.35 24.38 27.49-11.15-.1-21.78-4.5-31.75-9.44-15.19-7.51-30.56-16.57-47.56-17.16-19.99-.61-38.12 10.68-54.43 22.32a59.36 59.36 0 0 1 40.66-5.65c30.37 6.78 52.72 36.78 83.73 39.33 18.18 1.49 35.59-6.9 51.48-15.88a117.79 117.79 0 0 0-13.61 24.71c13.36-11.26 35.35-5.72 49.01-16.63a31.07 31.07 0 0 0 10.16-16.81 21.09 21.09 0 0 0 0-12.19c-1.38-3.88-4.89-7.19-9-7.4"/><path id="X" d="M236.1 301.67l-18.65-26.74h19.13l41.36 25.88-41.84.86z"/><path id="Y" d="M237.04 349.54l-18.66 26.32h19.14l41.36-25.89-41.84-.43z"/></defs><path class="A" d="M410.84 69.75c-18.87-14.77-43.39-20.71-67.28-21.36-28.99-.79-57.73 5.44-83.78 18.18-19.81 9.66-37.62 22.97-56.6 34.11-39.84 23.36-84.86 37.34-123.28 62.98S8.97 231.93 14.45 277.78c5.16 43.29 42.86 76.41 83.41 92.42 40.54 16.01 84.86 19.08 127.46 28.27 39.04 8.42 79.72 22.09 117.84 10.19 20.35-6.35 37.94-19.52 57.98-26.64 24.56-8.71 54.12-9.24 71.51-28.63 13.54-15.09 15.27-37.6 11.69-57.55-4.14-23.3-14.05-45.13-16.81-68.75-2.37-20.27 1.78-39.97.92-60.06-1.39-33.42-31.97-77.35-57.61-97.28z" fill="#7d68fd" opacity=".18"/><path d="M222.68 231.75a224.5 224.5 0 0 0-32.65 13.8 11.62 11.62 0 0 0-4.36 3.27c-1.15 1.49-1.15 3.57 0 5.07 1.16 1.19 3.04 1.2 4.69 1.12a243.07 243.07 0 0 0 60.91-10.86 3.91 3.91 0 0 0 1.81-.95c.94-1.05.48-2.76-.17-3.98-6.43-12.53-18.72-11.28-30.23-7.47zm90.36 54.24a1.54 1.54 0 0 0 .78 2.04 1.45 1.45 0 0 0 .82.12l5.52.91a2.27 2.27 0 0 0 2.92-1.32c.02-.05.03-.1.05-.15 2.76-5.23 5.4-10.6 8.66-15.56 6.65-10.09 16.15-18.44 20.61-29.68 1.26-3.33 2.19-6.78 2.76-10.3.98-5.65 1.1-12.24-3.08-16.15a3.02 3.02 0 0 0-2.15-1.01c-.61.09-1.18.35-1.66.75-4.14 2.87-10.46 5.72-13.65 9.66-2.51 3.16-4.14 8.09-5.87 11.73-4.82 10.01-8.75 20.43-11.73 31.13a196.55 196.55 0 0 0-3.98 17.81z" fill="#ffaa71"/><use href="#P" fill="#3f3d56"/><use href="#P" fill="url(#linear-gradient)"/><use href="#Q" fill="#3f3d56"/><use href="#Q" fill="url(#B)"/><path d="M386.5 117.66c.45.59.68 1.32.66 2.06a1.95 1.95 0 0 1-1.5 1.3c-.68.17-1.38.12-2.07.23-2.6.44-4.28 2.86-5.81 5s-3.66 4.38-6.28 4.14a15.49 15.49 0 0 1-3.73-1.38c-3.41-1.01-7.1-.51-10.12 1.38-1.38.8-3.02 1.82-4.64 1.38a4.75 4.75 0 0 1-2.98-3.13c-.84-2.31-1.2-4.77-1.05-7.22a6.33 6.33 0 0 1 .5-2.64c.64-1.38 1.99-2.07 2.97-3.15.76-.9 1.4-1.89 1.91-2.95 1.65-3.04 3.5-5.98 5.52-8.79 2.76-3.91 6.31-7.8 11.04-8.84a15.33 15.33 0 0 1 11.32 2.6c2.95 1.91 4.38 5.69 4.61 9.14s-2.2 7.28-.35 10.88z" fill="#ffaa71"/><path d="M389.84,99.9c1.21,1.38,2.51,3.06,1.88,4.75-.72,1.36-2.2,2.14-3.73,1.96-2.97-.14-5.52-2.15-8.13-3.45-3-1.46-6.34-2.07-9.66-1.75-.39.01-.76.12-1.1.3-.39.31-.68.72-.86,1.19l-3.4,7.34c-.69-.57-.57-1.63-.46-2.51.11-.88-.08-2.04-.95-2.26-.36-.06-.72,0-1.04.18-1.76.86-2.65,2.87-2.1,4.75.15.47.35,1.06,0,1.38-.26.15-.56.2-.86.15-1.46,0-2.55,1.27-3.53,2.36s-2.32,2.19-3.73,1.84c-.32-.06-.6-.24-.79-.51-.15-.4-.15-.84,0-1.24l.59-3.23c.31-1.01.26-2.1-.12-3.08-.65-.89-1.54-1.57-2.57-1.96-.97-.54-1.96-1.38-1.95-2.46.16-1.05.91-1.91,1.92-2.22,1-.27,1.98-.59,2.94-.97-.67-1.76-.57-3.73.29-5.41.93-1.1,2.19-1.87,3.59-2.22,3.36-1.14,6.82-1.93,10.34-2.36,2.89-.48,5.85-.3,8.66.52,1.24.48,2.44,1.05,3.59,1.73,0,.57,5.4,3,6.07,3.38,1.91.96,3.63,2.25,5.09,3.81Z" fill="#3f3d56"/><use href="#R" fill="#7d68fd"/><use href="#R" fill="url(#C)"/><path d="M353.92 130.25c-2.64 9.07-12.58 14.25-16.23 22.94-.87 2.07-1.38 4.27-2.06 6.39-2.65 8.02-8.28 14.7-11.5 22.52-1.12 2.76-2.03 5.73-4.33 7.57-1.91 1.38-4.27 2-6.61 1.77-8.64-.54-15.3-8.5-23.87-9.66-5.09-.69-10.16 1.12-14.99 2.91.58-8.13 1.83-16.2 3.75-24.12a50.81 50.81 0 0 1 11.18-21.47c2.69-2.9 5.83-5.37 8.39-8.38 1.59-1.86 10.84 3.04 12.65 1.38 1.52-1.38-4.57-9.4-2.76-10.3 6.12-2.74 12.55-4.69 19.16-5.81 7.03-1.38 14.73-2.58 21.05.81a13.97 13.97 0 0 1 6.9 8.28 10.83 10.83 0 0 1-2.51 10.34" fill="#fff"/><path d="M392.92 196.75l2.31.86a21.96 21.96 0 0 1 6.97 4.38c1.79 1.6 3.4 3.4 4.8 5.36 2.73 4.03 2.95 9.24.58 13.49-.33.67-.9 1.2-1.6 1.46a3.36 3.36 0 0 1-2.95-1.19 33.05 33.05 0 0 1-6.82-8.56c-1.38-2.51-3.04-5.62-5.91-5.69-.65.06-1.3.06-1.95 0-.68-.2-1.3-.56-1.81-1.05-6.9-5.62-13.5-11.86-21.66-15.38-3.89-1.68-8.28-2.9-10.8-6.35a1.5 1.5 0 0 1-.44-1.13c.59-3.85 5.14-9.33 9.25-9.04 3.26.25 4.74 2.86 6.99 4.71 2.68 2.21 22.89 18.14 23.04 18.14z" fill="#ffaa71"/><use href="#S" fill="#7d68fd"/><use href="#S" fill="url(#D)"/><g fill="#3f3d56"><use href="#T"/><use href="#U"/></g><use href="#T" fill="url(#E)"/><use href="#U" fill="url(#F)"/><use href="#V" fill="#7d68fd"/><use href="#V" fill="url(#G)"/><use href="#W" class="M" opacity=".59" fill="#7d68fd"/><use href="#W" fill="url(#H)"/><path d="M236.8 318.75c-6.11-6.4-15.13-9.14-23.77-7.22-3.45.81-6.7 2.35-10.15 3.19-8.06 1.87-16.52-.21-22.81-5.59 1.99 6.55 6.75 11.9 13.02 14.63-5.95 0-11.62-2.42-16.97-5.04-8.14-4.02-16.32-8.89-25.4-9.17-10.66-.33-20.36 5.73-28.99 11.91a31.57 31.57 0 0 1 21.7-3.01c16.22 3.62 28.16 19.63 44.71 21 9.66.8 19.01-3.7 27.49-8.48-2.94 4.09-5.38 8.52-7.26 13.2 7.12-6.02 18.87-3.05 26.23-8.88 2.73-2.33 4.63-5.48 5.43-8.99.64-2.12.64-4.38 0-6.5-.69-2.15-2.58-3.69-4.82-3.95" fill="url(#I)"/><path d="M236.81 320.1a17.37 17.37 0 0 0-16.33-4.96c-2.37.55-4.61 1.62-6.99 2.18-5.54 1.27-11.35-.15-15.67-3.84a16.08 16.08 0 0 0 8.95 10.09 27.59 27.59 0 0 1-11.67-3.47c-5.52-2.76-11.21-6.1-17.45-6.3-7.33-.23-14 3.93-19.96 8.19a21.72 21.72 0 0 1 14.92-2.07c11.14 2.48 19.33 13.5 30.72 14.43 6.67.55 13.06-2.54 18.89-5.83-2.01 2.82-3.69 5.86-4.98 9.07 4.9-4.14 12.98-2.1 17.95-6.1 1.88-1.6 3.19-3.76 3.74-6.17.44-1.46.44-3.01 0-4.47a3.93 3.93 0 0 0-3.3-2.76" fill="url(#J)"/><path d="M461.17 333.42c-14.29 9.66-45.56 16.26-45.56 16.26l-178.81.76-.37-23.47-.33-25.3c3.8-.76 175.76-3.05 175.76-3.05a90.49 90.49 0 0 1 51 17.52c8.61 6.24 5.77 12.16-1.68 17.28z" fill="#7d68fd"/><path d="M461.17,333.42c-14.29,9.66-45.56,16.26-45.56,16.26l-178.81.76-.76-23.39h.39c9.8-.39,175.32-1.38,175.32-1.38,16.77.12,33.42,2.73,49.42,7.74Z" fill="url(#K)"/><g fill="#7d68fd"><use href="#X"/><use href="#Y"/></g><use href="#X" fill="url(#L)"/><use href="#Y" fill="url(#M)"/><path d="M243.62 298.7h8.26v51.77h-8.26z" fill="url(#N)"/><path d="M407.37 298.7h8.26v51.77h-8.26z" fill="url(#O)"/></svg>