<svg xmlns="http://www.w3.org/2000/svg" viewBox="0 0 500 500" width="145" height="150" xmlns:v="https://vecta.io/nano"><style><![CDATA[.A{isolation:isolate}]]></style><defs><linearGradient id="A" gradientUnits="userSpaceOnUse"><stop offset="0" stop-color="#231f20"/><stop offset=".08" stop-color="#231f20" stop-opacity=".69"/><stop offset=".21" stop-color="#231f20" stop-opacity=".32"/><stop offset="1" stop-color="#231f20" stop-opacity="0"/></linearGradient><linearGradient id="B" x1="-427.38" y1="-38.03" x2="-415.11" y2="127.41" gradientTransform="translate(-180.38 323.75) rotate(-180) scale(1 -1)" href="#A"/><linearGradient id="C" x1="45.35" y1="58.76" x2="282.82" y2="246.14" href="#A"/><linearGradient id="D" x1="113.52" y1="35.18" x2="118.58" y2="148.29" href="#A"/><linearGradient id="E" x1="97.76" y1="58.23" x2="102.04" y2="153.58" href="#A"/><linearGradient id="F" x1="113.52" y1="67.26" x2="118.58" y2="180.36" href="#A"/><linearGradient id="G" x1="97.76" y1="90.31" x2="102.04" y2="185.65" href="#A"/><linearGradient id="H" x1="488.67" y1="163.83" x2="191.56" y2="327.57" href="#A"/><linearGradient id="I" x1="52.36" y1="227.25" x2="309.5" y2="376.93" href="#A"/><path id="J" d="M183.33 374.38h114.2l-20.21-72.64h-76.95l-17.04 72.64z"/><path id="K" d="M406.42 111.53v154.89H79.67V111.53a19.79 19.79 0 0 1 19.85-19.62h287.02c10.9-.06 19.8 8.72 19.89 19.62z"/></defs><path class="A" d="M172.12 34.63c-26.98 14.48-46.71 40.93-55.46 70.28-5.17 17.37-6.79 35.69-12.7 52.82-16.77 48.73-65.17 80.43-85.81 127.67-11.5 26.31-13.49 56.96-3.81 83.94s31.33 49.87 58.46 59.4c16.49 5.85 34.47 6.71 52 7.28 32.98 1.05 66.07 1.17 98.48-4.68 15.42-2.79 30.62-6.91 46.21-8.72 30.13-3.48 60.88 1.81 90.82-3 20.85-3.39 40.62-11.6 59.49-21.07 14.18-7.1 28.12-14.99 39.8-25.77 30.92-28.37 42.39-74.36 34.07-115.5s-34.47-77.27-67.28-103.35c-14.45-11.47-30.19-21.19-45.34-31.72a508.1 508.1 0 0 1-55.46-44.62C283.8 38.88 230 3.51 172.12 34.63z" opacity=".18" fill="#7d68fd"/><path d="M93.86 372.67l-1.92-.12c-6.28-.49-10.49 2.71-15.78 5.82-6.3 3.7-13.49 5.74-19.62 9.62-.91.58-1.93 1.66-1.38 2.59.37.61 1.23.7 1.96.72l46.47.36h281.04c10.25-.04 20.48-.74 30.64-2.08 1.65-.05 2.96-1.43 2.91-3.09-.04-1.37-1-2.53-2.34-2.83-8.71-3-17.47-5.8-26.26-8.41-22.35-6.71-47.44-3.78-70.45-3.3-24.22.52-48.49 1.12-72.7-.43-17.43-1.12-31.12 0-48.61.57-12.76.37-25.38 1.5-38.18 1.3l-45.46-.55c-6.77.04-13.59.24-20.32-.16z" fill="url(#linear-gradient)"/><use href="#J" fill="#7d68fd"/><use href="#J" fill="url(#B)"/><path d="M411.49 107.67v187.36c-.07 11.28-9.25 20.39-20.53 20.35H95.04c-11.3 0-20.47-9.16-20.49-20.46V107.67a20.49 20.49 0 0 1 20.49-20.49h295.91c11.32-.02 20.51 9.13 20.53 20.44h0v.05z" fill="#7d68fd"/><path d="M411.49,107.68v164.23H74.55V107.68c0-11.32,9.17-20.5,20.49-20.5h295.91c11.33,0,20.53,9.17,20.53,20.5h0Z" fill="#231f20"/><use href="#K" fill="#fff"/><g fill="#7d68fd"><use href="#K" class="A" opacity=".18"/><path d="M171.7 164.88h155.88c5.79 0 10.49 4.7 10.49 10.49h0c0 5.79-4.7 10.49-10.49 10.49H171.7v-20.98z"/></g><path d="M171.7 164.88h125.85v20.89H171.7z" fill="#fff"/><g fill="none" stroke="#fff" stroke-width="1.5"><circle cx="316.2" cy="174.14" r="5.04"/><path d="M320.82,182.34l-2.07-3.85" stroke-miterlimit="10"/></g><path d="M180.6 87.18v64.03c0 4.92-3.99 8.9-8.9 8.9H74.56v-52.46c.02-11.3 9.19-20.46 20.49-20.47h85.56z" fill="url(#C)"/><rect x="57.71" y="57.48" width="116.15" height="95.03" rx="8.92" fill="#7d68fd"/><path d="M72.94 77.16h85.17v5.35H72.94z" fill="url(#D)"/><path d="M72.94 93.2h53.03v5.35H72.94z" fill="url(#E)"/><path d="M72.94 109.24h85.17v5.35H72.94z" fill="url(#F)"/><path d="M72.94 125.28h53.03v5.35H72.94z" fill="url(#G)"/><rect x="266.28" y="206.88" width="116.15" height="95.03" rx="13.67" fill="url(#H)"/><rect x="260.66" y="201.32" width="116.15" height="95.03" rx="13.67" fill="#fff"/><g fill="#7d68fd"><path d="M360.33 281.9h-82.62v-60.99h1.5v59.49h81.12v1.5z"/><path d="M291.55 251.35h9.71v29.05h-9.71zm19.81-12.67h9.71v41.71h-9.71zm21.75-9.02h9.71v50.74h-9.71z"/></g><path d="M151.61,315.38c2.74-12.71-10.3-23.91-9.8-36.9.21-5.71,3-10.96,5.79-15.96.16-.39.45-.72.82-.93.57-.24,1.2.12,1.75.39,5.17,2.65,11.75-1.11,14.24-6.36s2.02-11.35,1.5-17.12c-5.61,4.52-13.2,5.73-19.94,3.18-3.28-1.27-6.39-3.46-9.91-3.45s-6.76,2.4-9.32,4.96c-8.8,8.8-13.74,20.88-16.01,33.13s-1.74,26.43-1.5,38.88l42.37.18Z" fill="url(#I)"/><path d="M136.98,373.64c-.09,1.02.26,2.04.96,2.79.37.26.8.43,1.24.51,1.18.23,2.39.31,3.6.22,2.25-.15,4.48-.48,6.69-.96l3.78-.72c.48-.02.94-.24,1.24-.61.24-.5.16-1.09-.21-1.5-.65-.75-1.49-1.3-2.43-1.59-2.27-.92-4.61-1.67-7-2.22-.4-.06-.77-.21-1.09-.45-.48-.42-.57-1.12-.9-1.66-.66-.98-1.86-1.44-3-1.15-1.09.21-2.67.94-3,2.14-.16,1.73-.11,3.48.12,5.2Z" fill="#f9c6d6"/><path d="M149.21 370.03c-.79-.21-1.62.03-2.19.61-.63.91.18 2.38-.55 3.21a2.13 2.13 0 0 1-1.66.49h-4.17c-1.12.05-2.24-.04-3.34-.27-.25-.1-.52-.14-.78-.09-.38.11-.66.43-.7.82-.04.38.02.77.16 1.12a7.73 7.73 0 0 0 1.15 2.11c.14.19.31.35.51.46.24.1.49.14.75.12l7.49-.1 5.14-.51c2.48 0 4.95-.42 7.28-1.26.61-.21 1.12-.66 1.39-1.24a1.79 1.79 0 0 0-.31-1.5 3.98 3.98 0 0 0-1.23-1.08c-1.35-.87-2.83-1.51-4.39-1.9-1.5-.43-3.02-.77-4.56-1z" fill="#231f20"/><path d="M91.18,369.03v.31c.15,3.33,4.5,3.42,6.94,3.3,2.24-.16,4.47-.48,6.67-.96l3.79-.72c.48-.03.93-.25,1.24-.61.23-.5.15-1.08-.21-1.5-.65-.75-1.49-1.3-2.44-1.59-2.04-.78-4.12-1.47-6.24-2.04-1.87-.55-.3-3.13-.09-4.5.08-.27.08-.56,0-.84-.21-.3-.53-.5-.88-.58-1.09-.38-2.23-.58-3.39-.61-.23-.03-.47.02-.67.13-.18.14-.31.33-.39.54l-3.61,7.72c-.36.6-.6,1.26-.72,1.95Z" fill="#f9c6d6"/><g fill="#231f20"><path d="M92.77 271.01s-2.7 15.2 2.88 26.59c2.92 6.13 6.19 12.08 9.79 17.84 0 0-11.6 12.55-11.6 28.37s-.3 16.49-.3 16.49l6.97 3.52 17.39-48.44s1.05-6.86 0-9.19-9.97-28.81-9.97-28.81l-15.15-6.37zm63.01-61.62c-3.6 0-7.49-3.84-9.74-9.76-2.52-6.85-1.42-13.13 2.55-14.6s8.87 2.61 11.41 9.46h0c2.53 6.86 1.5 13.15-2.53 14.61a4.82 4.82 0 0 1-1.68.28zm-5.52-21.41c-.19 0-.39.03-.57.09-1.86.69-2.52 5.31-.61 10.49s5.4 8.23 7.25 7.49 2.52-5.31.63-10.49h0c-1.72-4.59-4.77-7.58-6.7-7.58z"/><path d="M170.08 224.46c-.49 0-.96-.22-1.27-.6l-11.99-15.11c-.55-.7-.44-1.72.26-2.27h0c.69-.55 1.7-.43 2.25.25h0l11.99 15.11c.55.69.44 1.7-.25 2.25-.29.23-.64.36-1.01.35h.02z"/></g><path d="M148.87 202.06c.19 1.59.25 3.18.19 4.78a5.16 5.16 0 0 1-2.13 3 10.26 10.26 0 0 1-3.46 1.5c-1 .08-1.74.95-1.66 1.95a2.32 2.32 0 0 0 .07.38v4.09a1.78 1.78 0 0 1-.3 1.21c-.19.19-.44.33-.7.39-2.05.48-4.14-.58-4.98-2.5-.45-.9-.96-1.78-1.5-2.64-.53-1.11-.85-2.3-.94-3.52-.4-3.92.34-7.88 2.13-11.39 1.11-2.25 2.73-4.2 4.74-5.7 1.59-1.14 4.72-2.86 6.36-.88.81.99.79 2.44 1.5 3.48.55.75 1.5 1.26 1.66 2.17s-.45 1.5-.73 2.32c-.15.43-.24.89-.24 1.35zm12.01 8.26v-.24c.02-.94.36-1.84.97-2.55a2.01 2.01 0 0 1 2.53-.36c.33.22.55.57.91.73s1.14 0 1.5.45.28.78.46 1.17.7.72 1.05 1.09c1.69 1.83-.18 5.1-.85 6.95L164.6 226a4.46 4.46 0 0 1-2.88-.55 3.21 3.21 0 0 1-.84-.72c-.55-1-.67-2.18-.33-3.27.21-.82.27-1.67.18-2.52-.24-.91-.54-1.81-.9-2.68-.25-.73-.46-1.66.12-2.19.19-.18.48-.28.64-.49a1.35 1.35 0 0 0 .21-.73c.09-.9.02-1.68.06-2.53z" fill="#f9c6d6"/><path d="M127.82,277.58l16.86,37.8-.7,53.76-7.73-.57s-13.24-30.58-4.72-49.46c0,0-20.44-17.48-28-27.43-9.28-12.25-7.18-22.48-7.18-22.48l31.48,8.38Z" fill="#231f20"/><path d="M135.63,212.23c2.08.47,4.09,1.18,6,2.13,6.48,3,6.76,8.09,8.99,14.22,1.44,3.9,3.08,7.72,4.92,11.45l3.09-18.47,8.66,3.49s.85,27.28-5.5,30.94c-4.09,2.37-9.82-.39-13.49-2.29-1.35-.69-3.58-2.77-5.04-3-2.77-.37-3,2.91-5.4,4.84-1.6.93-3.14,1.96-4.6,3.1-1.37,1.6-2.39,3.46-3,5.47-.69,2.48-.9,5.06-.6,7.61.12,1.75.24,3.75-1,4.96-.71.61-1.59,1.01-2.52,1.12-3.08.44-6.21.41-9.28-.1-6.09-.48-12.11-1.56-17.99-3.22-2.12-.67-4.2-1.48-6.21-2.44-.44-.18-.84-.45-1.18-.78-.37-.43-.62-.94-.72-1.5-.79-3.72,1.89-7.16,3.24-10.72.9-2.4,1.2-4.99,2.02-7.42.9-2.71,2.58-4.5,4.08-6.89,1.21-1.89,1.89-4.12,3.1-6.07,3.24-5,6.86-9.75,10.81-14.21,2.32-2.87,4.9-5.53,7.7-7.93,3.21-2.82,7.32-4.41,11.59-4.5.78,0,1.56.07,2.32.19Z" fill="#fff"/><path d="M128.84 180.48c-5.08.28-9.47 3.64-11.08 8.47-.67 1.74-.4 3.93-.67 5.8-.12 2.12-.99 4.12-2.44 5.67-1.8 1.65-4.5 1.9-6.79 2.5-3.67.93-7.33 3.12-8.68 6.67s-.21 7.18-.81 10.73c-.49 2.96-2.1 5.61-4.5 7.42-1.65 1.21-3.61 1.98-5.32 3.13-6.19 4.66-7.43 13.45-2.78 19.65l.21.27a18.84 18.84 0 0 1 1.75 2.04c.49.84.93 1.71 1.33 2.59 2.38 4.15 6.92 6.58 11.69 6.28a16.28 16.28 0 0 0 11.83-6.66c2.62-3.49 4.06-7.87 7.24-10.85 2.22-1.73 4.55-3.32 6.98-4.74 3.79-2.7 6.74-7.03 6.52-11.68-.21-3.87-3.46-8.08-.45-11.51 1.12-1.11 2.37-2.08 3.72-2.91a8.87 8.87 0 0 0 3.21-3.42c1.5-3.24-.67-7.33 1.05-10.49 1.27-2.26 4.12-3.1 6-4.98a7.74 7.74 0 0 0 1.24-8.38 10.13 10.13 0 0 0-6.79-5.44c-2.17-.45-4.4-.6-6.61-.43l-3.78.12c-.7-.05-1.4 0-2.08.13zm-25.03 184.36c-.78-.21-1.62.02-2.19.6-.63.93.18 2.38-.55 3.22a2.26 2.26 0 0 1-1.68.48h-4.21c-1.12.05-2.24-.04-3.34-.27a1.78 1.78 0 0 0-.79-.1 1.02 1.02 0 0 0-.69.84c-.04.38.01.76.16 1.11a7.84 7.84 0 0 0 1.15 2.13 1.5 1.5 0 0 0 .51.46c.24.09.49.13.75.12l7.49-.1 5.14-.51a21.73 21.73 0 0 0 7.28-1.26 2.38 2.38 0 0 0 1.38-1.26c.13-.52.02-1.07-.3-1.5-.33-.44-.75-.8-1.23-1.06-1.35-.87-2.83-1.51-4.39-1.9a34.38 34.38 0 0 0-4.5-.99z" fill="#231f20"/></svg>