<svg xmlns="http://www.w3.org/2000/svg" viewBox="0 0 500 500" width="145" height="150" xmlns:v="https://vecta.io/nano"><style><![CDATA[.A{isolation:isolate}.S{fill:#7d68fd}]]></style><defs><linearGradient id="A" gradientUnits="userSpaceOnUse"><stop offset="0" stop-opacity="0"/><stop offset=".99"/></linearGradient><linearGradient id="B" x1="502.97" y1="215.37" x2="370.14" y2="220.26" href="#A"/><linearGradient id="C" x1="417.53" y1="181.29" x2="430.8" y2="291.95" gradientUnits="userSpaceOnUse"><stop offset=".02" stop-color="#fff" stop-opacity="0"/><stop offset=".32" stop-color="#fff" stop-opacity=".39"/><stop offset=".68" stop-color="#fff" stop-opacity=".68"/><stop offset="1" stop-color="#fff"/></linearGradient><linearGradient id="D" x1="421.95" y1="260.06" x2="454.85" y2="272.36" href="#A"/><linearGradient id="E" x1="446.52" y1="261.69" x2="430.55" y2="251.84" href="#A"/><linearGradient id="F" x1="73.87" y1="227.63" x2="81.01" y2="206.75" href="#A"/><linearGradient id="G" x1="17.31" y1="191.12" x2="117.99" y2="194.82" href="#A"/><linearGradient id="H" x1="82.07" y1="165.28" x2="72.01" y2="249.16" href="#C"/><linearGradient id="I" x1="78.73" y1="224.99" x2="53.79" y2="234.32" href="#A"/><linearGradient id="J" x1="331.92" y1="3622.03" x2="351.41" y2="3495.71" gradientTransform="translate(-568.33 3673.52) rotate(8.62) scale(1 -1)" href="#A"/><linearGradient id="K" x1="367.88" y1="3575.78" x2="368.33" y2="3538.32" gradientTransform="translate(-3238.68 -169.79) rotate(90) scale(1 -1)" href="#A"/><linearGradient id="L" x1="1320.84" y1="1854.75" x2="1338.86" y2="1738.03" gradientTransform="translate(-476.2 2408.93) rotate(-20.42) scale(1 -1)" href="#A"/><linearGradient id="M" x1="157.82" y1="227.41" x2="158.24" y2="262.03" href="#A"/><linearGradient id="N" x1="171.87" y1="320.87" x2="172.23" y2="360.53" href="#A"/><linearGradient id="O" x1="246.05" y1="221.71" x2="173.35" y2="297.04" href="#A"/></defs><g class="S"><path class="A" d="M141.49 159.3c-22.96 11.91-48.38 18.33-72 28.89s-46.44 26.8-56.22 50.84c-2.7 6.6-4.32 13.87-3.43 21 2.02 16.18 16.05 27.99 30.19 36.02 30.88 17.55 66.57 24.99 98.07 41.41 13.58 7.08 26.33 15.81 40.44 21.74 34.41 14.46 76 10.4 106.93-10.53 12.46-8.41 23.25-19.31 36.6-26.2 20.8-10.73 45.38-10.54 68.8-9.85s47.85 1.44 69.12-8.39 37.98-33.9 31.2-56.34c-4.23-14.03-16.47-24.27-29.48-31.03s-27.27-10.83-40.3-17.53c-37.52-19.32-62.51-59-101.96-73.95-31.67-12.09-66.45-5.7-97.54 5.12-13.15 4.62-26.13 3.79-39.29 7.97-14.65 4.65-27.58 13.72-41.14 20.82z" opacity=".24"/><path d="M238.59 279.8c-65.7 0-117.16-15.2-117.16-34.6s51.46-34.58 117.16-34.58 117.15 15.2 117.15 34.58-51.46 34.6-117.15 34.6zm0-66.05c-61.81 0-114.03 14.41-114.03 31.45s52.22 31.47 114.03 31.47 114.02-14.41 114.02-31.47-52.23-31.45-114.02-31.45zm3.58 98.85c-53.63 0-104.08-6.47-142.05-18.22-38.55-11.94-59.74-28.04-59.74-45.38s21.23-33.44 59.78-45.38c37.97-11.74 88.42-18.22 142.05-18.22s104.09 6.48 142.05 18.22c38.56 11.94 59.79 28.06 59.79 45.38s-21.23 33.44-59.79 45.38c-37.99 11.75-88.44 18.22-142.08 18.22zm0-123.94c-53.32 0-103.42 6.42-141.08 18.08-36.54 11.3-57.5 26.7-57.5 42.26s20.96 30.96 57.5 42.27c37.66 11.66 87.82 18.07 141.08 18.07s103.43-6.41 141.09-18.07c36.54-11.31 57.49-26.72 57.49-42.27s-20.95-30.96-57.49-42.26c-37.66-11.62-87.76-18.08-141.09-18.08z"/><path d="M446.96 258.25c-1.22 4.71-6.77 3.89-6.77 3.89s-32.35.6-32.99 0-.17-2.4-.06-3.09l.06-.24h9.24s4.37-2.31-2.78-12.56c-6.02-8.65 16.67-9.05 24.09-8.94h2.31s8.11 16.22 6.9 20.94z"/><path d="M443.12 254.94c-1.16 4.7-6.81 3.82-6.81 3.82l-29.2.24.06-.24h9.24s4.37-2.31-2.78-12.56c-6.02-8.65 16.67-9.05 24.09-8.94 2.31 4.98 6.29 14.29 5.4 17.68z"/></g><path d="M444.44 255.64c-1.21 4.7-8.09 3.13-8.09 3.13l-29.2.24.06-.24h9.24s4.37-2.31-2.78-12.56c-6.02-8.65 16.67-9.05 24.09-8.94 2.26 4.98 7.56 14.99 6.68 18.37z" fill="url(#linear-gradient)"/><rect x="382.61" y="190.71" width="82.2" height="55.16" rx="6.51" class="S"/><rect x="382.61" y="190.71" width="82.2" height="55.16" rx="6.51" fill="url(#B)"/><rect x="380.87" y="190.71" width="82.2" height="55.16" rx="6.51" class="S"/><rect x="380.87" y="190.71" width="82.2" height="55.16" rx="6.51" fill="url(#C)"/><path d="M463.01 233.88l.06 5.48a6.51 6.51 0 0 1-6.51 6.51h-69.19a6.51 6.51 0 0 1-6.51-6.51h0v-5.48h82.15z" class="S"/><path d="M407.17 259.03h32.26v3.06h-32.26z" fill="url(#D)"/><path d="M444.44,255.64l.3,5.49c-1.56,1.04-3.49,1.39-5.32.97v-3.07s4.58,1.32,5.01-3.39Z" fill="url(#E)"/><g class="S"><path d="M59.76 223.62c.94 3.57 5.17 2.92 5.17 2.92s24.54.45 25.01 0 .13-1.83 0-2.31v-.17h-7.01s-3.3-1.72 2.11-9.52c4.62-6.56-12.64-6.86-18.26-6.78h-1.72s-6.18 12.29-5.29 15.87z"/><path d="M62.68 221.11c.91 3.57 5.15 2.91 5.15 2.91l22.13.17v-.17h-7.05s-3.3-1.72 2.11-9.52c4.62-6.56-12.64-6.86-18.26-6.78-1.76 3.77-4.76 10.83-4.09 13.39z"/></g><path d="M61.68 221.7c.91 3.57 6.16 2.38 6.16 2.38l22.13.17v-.17h-7.05s-3.3-1.72 2.11-9.52c4.62-6.56-12.64-6.86-18.26-6.78-1.76 3.71-5.77 11.3-5.1 13.92z" fill="url(#F)"/><rect x="46.24" y="172.43" width="62.31" height="41.81" rx="4.93" class="S"/><rect x="46.24" y="172.43" width="62.31" height="41.81" rx="4.93" fill="url(#G)"/><rect x="47.56" y="172.43" width="62.31" height="41.81" rx="4.93" class="S"/><rect x="47.56" y="172.43" width="62.31" height="41.81" rx="4.93" fill="url(#H)"/><path d="M47.59 205.14v4.16a4.93 4.93 0 0 0 4.93 4.93h52.4a4.93 4.93 0 0 0 4.93-4.93h0v-4.16H47.58z" class="S"/><path d="M65.48 224.22h24.45v2.32H65.48z" fill="url(#I)"/><path d="M320.44,197.29l-31.97-4.77c-1.06-.16-1.88-1.03-1.96-2.1l-2.31-25.99c-.12-1.27.81-2.4,2.08-2.52.19-.02.39-.01.58.02l32.01,4.78c1.08.15,1.91,1.03,1.99,2.11l2.25,25.95c.13,1.27-.79,2.4-2.06,2.53-.2.02-.4.01-.59-.02Z" class="S"/><path d="M318.92 194.33l-28.89-4.31a2.09 2.09 0 0 1-1.79-1.84l-2.17-22.56a2.05 2.05 0 0 1 1.89-2.19 2.1 2.1 0 0 1 .5.03l28.89 4.31a2.08 2.08 0 0 1 1.79 1.84l2.17 22.57c.08 1.12-.76 2.09-1.88 2.18-.17.01-.34 0-.51-.03z" fill="url(#J)"/><g class="S"><path d="M289.06 191.61l41.71 6.23a1.43 1.43 0 0 1 1.2 1.62h0a1.43 1.43 0 0 1-1.62 1.2h0l-41.71-6.23c-.77-.12-1.3-.83-1.19-1.6h0a1.41 1.41 0 0 1 1.58-1.21z"/><rect x="322.46" y="180" width="2.85" height="36.48" rx="1.28" transform="matrix(.147809 -.989016 .989016 .147809 79.94 489.27)"/></g><rect x="322.46" y="180" width="2.85" height="36.48" rx="1.28" transform="matrix(.147809 -.989016 .989016 .147809 79.94 489.27)" fill="url(#K)"/><path d="M154.78,240.42l-27.94,10.57c-.93.36-1.98.03-2.53-.8l-13.58-19.93c-.67-.98-.42-2.32.56-2.99.14-.1.29-.18.45-.24l27.94-10.58c.94-.35,1.99-.01,2.55.81l13.53,19.91c.68.99.42,2.34-.57,3.02-.13.09-.28.17-.43.23Z" class="S"/><path d="M152.19,238.72l-25.21,9.56c-.83.36-1.8.08-2.31-.67l-11.89-17.22c-.58-.86-.35-2.02.5-2.6.14-.09.29-.17.44-.22l25.21-9.56c.83-.34,1.79-.06,2.31.67l11.94,17.22c.57.87.32,2.04-.55,2.61-.14.09-.29.16-.44.21Z" fill="url(#L)"/><g class="S"><path d="M126.89,250l36.44-13.8c.68-.26,1.44.08,1.7.77h0c.26.68-.08,1.44-.77,1.7l-36.44,13.8c-.67.27-1.43-.05-1.7-.71,0-.01,0-.02-.01-.03h0c-.27-.67.06-1.43.73-1.7.02,0,.04-.01.05-.02Z"/><rect x="141.11" y="238.31" width="33.71" height="2.63" rx="1.19" transform="matrix(.935135 -.354291 .354291 .935135 -74.65 71.51)"/></g><rect x="141.11" y="238.31" width="33.71" height="2.63" rx="1.19" transform="matrix(.935135 -.354291 .354291 .935135 -74.65 71.51)" fill="url(#M)"/><g transform="matrix(.995611 -.093587 .093587 .995611 -27.02 17.37)"><rect x="150.24" y="254.09" width="42.82" height="85.28" rx="7.55" class="S"/><rect x="150.24" y="254.09" width="42.82" height="85.28" rx="7.55" fill="url(#N)"/></g><rect x="150.15" y="254.01" width="42.82" height="83.46" rx="7.46" transform="matrix(.995611 -.093587 .093587 .995611 -26.92 17.35)" class="S"/><rect x="152.19" y="255.93" width="38.51" height="74.92" rx="6.7" transform="matrix(.995611 -.093587 .093587 .995611 -26.7 17.33)" fill="#fff"/><path d="M240.19 184.51c-24.52-.3-44.64 19.33-44.94 43.85S214.58 273 239.1 273.3h1.4c24.51-.47 44-20.73 43.53-45.24-.46-23.97-19.87-43.24-43.84-43.54zm6.59 20.44a.65.65 0 0 1 .07-.36c.13-.18.27-.43.45-.47s.38.15.64.28c-.47.47-.27.74.14.95a.61.61 0 0 1 .24.21c.11.33.25.64.44.92a3.61 3.61 0 0 0 .91.53c-.27.24-.55.47-.86.67a3.55 3.55 0 0 1-.94.4c-.27.03-.54.03-.81 0v-.15l.55-.35c-.2-.24-.49-.45-.51-.68s.24-.46.4-.73c-.25-.42-.62-.6-.89-.43-.79.53-.84.67-.49 1.24l-1.53.58c-.12-.54.51-1.02 0-1.5.21-.36.61-.58 1.03-.57h.6c.32.02.58-.13.53-.54zm-12.71-11.31c1.04.15 2.08.22 3.12.3a1.15 1.15 0 0 0 1.05-.34c.12-.15.39-.17.6-.21.81-.13 1.63-.28 2.44-.36.43-.06.86-.06 1.29 0 .99.15 1.99.35 2.97.53.16.02.31.09.44.2-.4 0-.83 0-1.24.09a2.48 2.48 0 0 0-.76.18c-.37.18-.72.38-.74.94a1.17 1.17 0 0 1-.92 1.16c-.54.2-1.07.43-1.58.7-.27.13-.27.28 0 .43s.75.4 1.16.65q-.64.24-1.95-.37c.18.32.37.62.57.94l-2.6.67c-.82.14-1.58.5-2.21 1.04a4.04 4.04 0 0 1-2.17.74c-.4.08-.74.15-.74.69 0 .2-.18.43-.35.59-.22.2-.46.38-.72.52-.62.45-1.49.31-1.94-.32a1.33 1.33 0 0 1-.26-.84 3.93 3.93 0 0 1 0-.84c.09-.33.22-.66.39-.96.09-.12.2-.24.31-.34.83-.68.95-1.91.27-2.75-.23-.28-.52-.48-.86-.6-.63-.38-1.33-.61-2.06-.69-.25-.07-.48-.19-.69-.34l2.85-.46a10.14 10.14 0 0 0 1.16-.43c.99-.45 2.07-.63 3.15-.53h.01zm9.72 6.73c0 .23-.11.45-.29.59a7.85 7.85 0 0 1-1.16.58.88.88 0 0 1-1.09-.24c-.13-.15-.39-.2-.59-.29v-.16c.19-.09.38-.17.58-.24l1.87-.49c.2-.07.55-.07.64.25h.03zm-22.11-5.34c.29-.09.59-.15.9-.23s.7-.15.84-.6a.71.71 0 0 1 .45-.38l.44-.08c.46-.09.94-.17 1.41-.24.39-.02.78-.07 1.16-.16.68-.26 1.42-.37 2.15-.32a7.71 7.71 0 0 0 .68 0h.66v.16c-.79.61-1.72 1.01-2.7 1.16a9.91 9.91 0 0 0-3.81 1.5c-.37.23-.74.42-1.02-.14h0c0-.1-.25-.16-.42-.18a7.57 7.57 0 0 1-1.06-.18c.09-.11.2-.21.31-.29h.01zm-2.31 1.27s-.07 0-.13-.07c.35-.58.72-.75 1.31-.47.57.29 1.22.34 1.83.14l.09.09c-.09.13-.15.31-.27.36s-.59.14-.89.24a.48.48 0 0 0-.28.31c0 .07.14.24.24.28l.39.1 3.1.88c.1.06.17.16.2.28 0 .16-.03.31-.07.46-.18.82 0 1.16.89 1.16a.58.58 0 0 1-.49.61c-.55.14-1.16.32-1.64.5-.27.08-.53.16-.45.53 0 .09-.05.17-.12.23-.47.35-1.12.35-1.59 0-.3-.33-.27-.84.06-1.14.11-.1.25-.17.41-.2.32-.08.67-.1 1.01-.2.15-.03.28-.12.37-.25 0-.08-.1-.28-.21-.38a4.58 4.58 0 0 0-2.31-1.16c-.25 0-.53-.07-.8-.09-.62 0-1.26-.1-1.9-.17-.27 0-.6 0-.62-.4a.56.56 0 0 1 .45-.66c.05 0 .09-.01.14 0 .42-.01.84-.06 1.26-.13.18 0 .45-.16.47-.29.01-.35-.17-.57-.5-.57l.05.02zm5.49 12.27c.16.18.45.47.4.62a.63.63 0 0 1-.74.47c-.56-.07-1.13-.12-1.7-.13.49-.71 1.18-1.25 1.99-1.55l-.4.36c.15.05.28.12.4.22h.05zm1.56 39.55c-.46.3-.87.65-1.25 1.04a3 3 0 0 0-.42 1.16c-.16.74-.37 1.47-.61 2.18-.17.4-.67.67-.98 1.04-.49.65-1.39.83-2.09.42-.17.5.16.82.37 1.16q.3.54-.22.9c-.46.36-.9.75-1.32 1.16a1.17 1.17 0 0 0-.34 1.16 4.56 4.56 0 0 1-.15 1.16 2.33 2.33 0 0 0-.08.59c0 .38.16.75.21 1.16.08.64.13 1.29.18 1.94 0 .24.09.39.38.42.15.04.27.13.34.27.17.37.32.74.47 1.16-.4.32-.99.25-1.31-.15 0-.01-.02-.02-.03-.03a2.11 2.11 0 0 0-1.09-.97c-.76-.33-1.37-.92-1.72-1.68a4.19 4.19 0 0 1-.74-2.52 1.29 1.29 0 0 0-.81-1.51c-.13 0-.21-.28-.23-.44-.07-.62-.1-1.27-.16-1.9-.13-1.35-.29-2.69-.37-4.03v-4.38a2.94 2.94 0 0 0-2.07-2.57 1.28 1.28 0 0 1-1.04-1.32c.02-.56-.29-1.08-.8-1.33a3.04 3.04 0 0 1-1.42-1.71c-.09-.22-.23-.42-.4-.58-.36-.35-.52-.86-.4-1.35.02-.33 0-.67-.07-.99-.05-.22-.07-.45-.06-.67.09-.65.33-1.27.69-1.81a8.77 8.77 0 0 0 .98-1.87c.3-.73.05-1.57-.59-2.03-.21-.09-.46-.09-.67 0-.43.28-.99.25-1.39-.08a5.73 5.73 0 0 1-1.98-2.11.76.76 0 0 0-.34-.27c-.2-.08-.42-.13-.64-.14-.58-.04-1.13-.31-1.51-.75a2.2 2.2 0 0 0-1.81-.67.66.66 0 0 1-.28 0 7.6 7.6 0 0 1-3.55-2.06 1.7 1.7 0 0 1-.3-1.36 41.67 41.67 0 0 1 1.83-7.95c1.31-3.98 3.19-7.74 5.59-11.17.89-1.28 1.92-2.5 2.89-3.73.14-.18.29-.28.5-.13.29.18.64.23.97.14.8-.09 1.61-.06 2.38-.22.93-.2 1.85-.49 2.73-.86.66-.38 1.11-1.04 1.21-1.79.05-.21.12-.42.21-.62q.23-.76 1.01-.59c.55.14 1.16.27 1.62.37-.45.16-.92.31-1.38.5s-.31.29-.12.51.61.77.94 1.16c.1.09.34.17.42.13a4.38 4.38 0 0 1 2.06-.28 4.8 4.8 0 0 1-.64.86 1.9 1.9 0 0 1-.86.37c-.8.16-1.62.27-2.43.39a1.16 1.16 0 0 1-1.16.96 5.8 5.8 0 0 0-2.84 1.31c-.6.33-.86 1.06-.59 1.69.08.25.16.59.58.37.06 0 .2 0 .29.08.39.21.76.43 1.16.62s.65.4 1.07.25h.22c-.1.65-.21 1.22-.32 1.87.46.02.9-.19 1.16-.58.75-1.16 1.55-2.15 2.31-3.21.12-.15.24-.31.34-.47h0a2.05 2.05 0 0 1 2.31-1.05c.53.08.89.2.84.83 0 .09.25.25.39.28.71.05 1.41-.11 2.02-.47.04.1.06.2.08.3.02.14.02.28 0 .42-.29 1.08.27 2.21 1.31 2.63l.21.1a4.42 4.42 0 0 1-2.83 1.22c-.73 0-1.46.19-2.09.55-.53.25-1.08.46-1.64.62a2.26 2.26 0 0 0-.53.44l.07.14 2.09-.18c-.08.51 0 .81.54.86.2 0 .37.3.62.51-.89.17-1.35 1.16-2.5.92l.9-.83c-.42-.47-.53-.52-1.09-.16s-1.05.77-1.58 1.16c-.14.1-.27.27-.42.29-.92.17-1.38.94-1.98 1.54l-.13.13a1.36 1.36 0 0 1-.99.54.77.77 0 0 0-.5.18c-.16.14-.27.34-.3.55.07.8-.36 1.55-1.09 1.9a12.54 12.54 0 0 0-1.83 1.16c-.5.51-.64 1.27-.36 1.93a1.63 1.63 0 0 1 0 1.43c0 .12-.31.21-.49.21s-.29-.16-.32-.29c-.14-.58-.24-1.16-.38-1.76-.08-.2-.18-.38-.3-.55h-.12v.66s-.07.07-.12.09c-.16-.17-.3-.35-.46-.5-.22-.21-.46-.38-.73-.53-.28-.14-.62-.02-.76.25-.29.37-.61.72-.9 1.05-.24-.29-.49-.57-.76-.83-.11-.1-.27-.14-.42-.1-.56.09-1.07.38-1.43.82-.37.46-.79.87-1.25 1.25a1.02 1.02 0 0 0-.3 1.32 1.22 1.22 0 0 1 0 .6c-.22 1.12.47 2.22 1.57 2.52a1.25 1.25 0 0 0 1.51-.59c.12-.25.2-.52.31-.77.09-.29.4-.46.69-.37.03 0 .05.02.07.03.18.19.27.45.23.7-.1.44-.23.87-.39 1.28-.15.49 0 .69.45.81s.74.12 1.16.16c.36-.02.66.25.69.6 0 .06 0 .13-.02.19-.05.55-.05 1.1 0 1.64a1.82 1.82 0 0 0 .5.83.55.55 0 0 0 .58 0 1.2 1.2 0 0 1 1.16-.1c.14.06.3.09.44.14.67.16.84 0 1.31-.45.29-.29.63-.52 1.01-.69.12-.03.24 0 .32.09.06.1.06.22 0 .31-.37.32-.17.49.15.62l.79.34c-.51-.82.16-1.1.46-1.59.12.09.24.15.35.24.43.48 1.06.73 1.71.68h.09a3.34 3.34 0 0 1 2.31.95 7.01 7.01 0 0 0 3.04 1.53c.49.08.91.39 1.16.82.21.35.47.66.68.99.34.53.23.9-.32 1.16l-.53.27c.14.27.31.35.57.2.19-.11.39-.19.6-.24.15 0 .31.13.44.23s-.07.18-.1.29-.07.25 0 .27a.53.53 0 0 0 .32.08c.09-.01.18-.06.24-.13.36-.41.98-.44 1.39-.08.03.03.06.05.08.08.06.06.17.09.17.14.07.77.59.46.92.34a1.23 1.23 0 0 1 1.01.06c.8.35 1.64.62 2.48.92.25.07.43.29.44.55a4.42 4.42 0 0 1-1.16 3.63c-.07.09-.15.16-.25.2-.37.16-.39.46-.4.8 0 .86-.04 1.72-.13 2.58-.11.53-.29 1.04-.54 1.51-.18.39-.37.8-.99.69-.2 0-.39.06-.54.18-.15.03-.27.13-.36.2zm46.52-3.46c-.35.86-.55 1.78-.84 2.66a3.05 3.05 0 0 1-.38.74q-.43.82-1.32.66a1.37 1.37 0 0 1-.86-1.72c.23-.29.43-.61.58-.95.09-.38.09-.78 0-1.16a1.27 1.27 0 0 1 .79-1.25c.13-.02.25-.07.35-.16.44-.44.89-.9 1.31-1.36.1-.14.18-.3.24-.46.4.96.44 2.02.12 3h.02zm8.42-22.86c-.26-.33-.67-.5-1.09-.46-1.43.08-2.86-.14-4.19-.66-.96-.24-1.87-.63-2.72-1.16a7.42 7.42 0 0 0-2.2-.74c.04.12.07.24.08.37-.17 1.06.62 1.56 1.24 2.17.27.25.52.52.81.83l1.84-.5a1 1 0 0 1 1.16.45c.32.38.66.74 1.03 1.07.32.36.24.45-.13.73-1.01.56-1.92 1.28-2.69 2.14a1.01 1.01 0 0 1-.34.31l-1.77 1.16c-.78.44-1.76.17-2.21-.61-.04-.07-.08-.15-.11-.22a6.4 6.4 0 0 0-1.28-2.31 5.54 5.54 0 0 1-.68-1.38c-.24-.51-.65-.91-1.16-1.16a1.59 1.59 0 0 1-.98-1.04c-.23-.66-.57-1.31-.84-1.96q-.66.28-.47.92a11.68 11.68 0 0 0 1.44 3.15c1.11 1.51 2.04 3.13 2.77 4.85.16.46.28.96.46 1.41.28.68.59.76 1.22.39a.47.47 0 0 1 .22-.09h2.5c-.1.67-.23 1.33-.4 1.99-.15.55-.41 1.07-.79 1.5a14.1 14.1 0 0 1-1.84 1.33c-.16.1-.3.25-.39.42l-2.1 3.94c-.18.34-.24.6 0 .88.98 1.05.69 2.31.7 3.59 0 .14-.22.31-.38.4-.8.35-1.51.87-2.09 1.53-.23.28-.39.62-.46.97a8.3 8.3 0 0 1-1.01 3.02c-.8 1.35-1.5 2.77-2.23 4.16a.86.86 0 0 1-.74.55l-2.14.13c-.31 0-.61.09-.92.12-.14.01-.28-.03-.4-.1-.25-.2-.47-.44-.67-.61a3.9 3.9 0 0 0-.53-2.03c-.14-.22-.29-.44-.46-.64-.47-.68-.73-1.48-.73-2.31a3.19 3.19 0 0 0-.4-1.29c-.53-.81-.86-1.73-.97-2.69a4.47 4.47 0 0 1 .29-1.58c.07-.22.16-.43.28-.62.22-.43.26-.93.12-1.4-.34-1.6-1.02-3.11-1.99-4.43-.21-.36-.21-.8 0-1.16a9.67 9.67 0 0 1 .5-.89c.17-.25.16-.46-.15-.58-.31-.09-.54-.34-.6-.66 0-.09-.27-.23-.39-.22-.63.07-1.25-.16-1.69-.61-.22-.22-.7-.22-1.09-.24-.28.01-.55.07-.81.16l-3.8.91a1.78 1.78 0 0 1-1.7-.54c-.11-.12-.24-.24-.37-.34-.56-.33-.91-.92-.92-1.57-.05-.28-.23-.52-.49-.65-1.16-.37-1.32-1.41-1.63-2.31a1.06 1.06 0 0 1 .22-.8c.3-.27.39-.7.22-1.06a3.07 3.07 0 0 1 .24-2.95 4.1 4.1 0 0 1 1.31-1.61c.22-.15.28-.53.49-.7.64-.59 1.09-1.35 1.29-2.2a2.72 2.72 0 0 1 .74-.88c.46-.44.96-.84 1.42-1.28.25-.23.43-.25.61.07.09.13.23.21.38.22l2.1-.28c.2-.06.41-.1.62-.13 1.01.02 2.02-.2 2.94-.64a.94.94 0 0 1 .66 0c.07 0 .07.31.06.49a1.5 1.5 0 0 0 .64 1.22l1.03.99c.07.06.15.15.23.16.69.12 1.4.24 2.11.3.35 0 .58-.13.69-.55s.47-.57.72-.84v.15a2.68 2.68 0 0 0 .49.4c.37.21.75.37 1.16.5a2.78 2.78 0 0 0 .91 0 2.26 2.26 0 0 1 .52 0c.74.1 1.47.2 2.21.35.24.06.49-.02.66-.21.66-.34.99-1.11.76-1.83-.07-.31-.12-.63-.15-.95a1.65 1.65 0 0 0-1.42.12c-.53.35-1.22.28-1.68-.15a3.47 3.47 0 0 1-1.51-1.99c.72.36 1.01-.08 1.34-.72-.89.21-1.69.37-2.47.59-.27.06-.43.33-.37.6a.51.51 0 0 0 .07.17c.06.09.09.19.08.3-.03.18-.09.35-.16.52-.22-.09-.54-.13-.64-.31s-.22-.59-.59-.7a.18.18 0 0 1-.1-.14c.07-.75-.59-1.16-.9-1.66-.14-.14-.32-.22-.52-.22a1.51 1.51 0 0 1-1.24-.64c-.11-.17-.25-.32-.42-.44-.24-.18-.54-.31-.77 0-.24.21-.27.57-.06.81l.06.06c.43.51.97.9 1.58 1.16a1.53 1.53 0 0 1 .82.89c-.54.44-1.33.35-1.77-.19-.07-.09-.14-.2-.18-.31a4.23 4.23 0 0 0-.51-.61 9.02 9.02 0 0 0-.96-1.09c-.47-.43-1.4-.46-1.5.36-.02.09-.04.17-.07.25l-.31-.09c-.55-.21-1.18.03-1.44.55-.12.17-.29.32-.42.49-.13.12-.24.27-.31.44-.16.68-.7 1.21-1.39 1.35-.88.15-1.77.22-2.66.22-.19-.05-.34-.2-.39-.38-.07-.61-.07-1.23 0-1.85.14-.64.72-1.08 1.38-1.03h1.87c.23 0 .38-.07.36-.36a1.71 1.71 0 0 1 0-.32c.13-.74.09-.82-.58-1.21-.2-.12-.42-.2-.61-.31s-.22-.17-.21-.25a.33.33 0 0 1 .22-.25 3.39 3.39 0 0 1 .72-.13c.99.02 1.9-.55 2.31-1.46.19-.52.67-.89 1.22-.94.89-.14 1.05-.37 1.16-1.28.06-.24.14-.46.24-.68h.18a6.61 6.61 0 0 1 .38.96c.05.35.32.62.67.68a5.79 5.79 0 0 0 1.02 0c.59-.08 1.16-.2 1.74-.28.21 0 .34 0 .4-.31s.35-.42.54-.61.46-.29.47-.66c.12-.42.5-.7.94-.72a.74.74 0 0 1 .46.31c.11.22.2.45.27.68a2.23 2.23 0 0 0 .67-2.22c-.23.07-.47.12-.72.15-.34.05-.68.05-1.02 0-.97-.21-1.16-.66-.6-1.47.18-.29.39-.87.3-.92-.37-.28-.7.07-.96.3a4 4 0 0 0-1.32 1.98c-.18.69-.46 1.34-.83 1.94-.15.25-.64.36-.98.4-.13 0-.34-.28-.47-.46a7.68 7.68 0 0 1-.36-.62v.15l-2.06.1c-.03-.09-.06-.19-.08-.29-.3-1.48-.44-1.28.99-1.85.44-.24.83-.56 1.16-.94l.97-.83c.07-.05.12-.11.17-.17.97-1.29 2.42-1.5 3.87-1.73a9.01 9.01 0 0 1 3.81.68l2.08.61c-.95.76-1.8 0-2.61.14 0 0-.06.09 0 .1a15.25 15.25 0 0 0 1.48 1.42c.35.18.78.03.96-.32.03-.05.04-.11.06-.16.08-.29.21-.43.52-.43.4 0 .75-.25.9-.62.16-.31.37-.45.7-.32 0 .36.12.52.47.4.14-.04.26-.1.38-.18.41-.25.9-.36 1.39-.31a6.8 6.8 0 0 0 1.99-.42c.61-.16.94-.1 1.25.24 2.87 2.97 5.3 6.33 7.23 9.98 2.31 4.33 3.88 9.02 4.62 13.87v.15c-1.07.07-1.59-.73-2.14-1.33h.02z" class="S"/><g fill="#fff"><path d="M283.49 222.97c-1.1.23-1.58-.57-2.16-1.16-.25-.34-.67-.52-1.09-.46-2.43 0-4.83-.64-6.93-1.86a6.56 6.56 0 0 0-2.2-.73 1.37 1.37 0 0 1 .08.35c-.17 1.07.61 1.57 1.24 2.18.27.25.51.52.81.83l1.84-.5a1 1 0 0 1 1.16.44c.31.38.65.75 1.02 1.09.34.36.25.46-.13.73a10.89 10.89 0 0 0-2.68 2.14 1.1 1.1 0 0 1-.34.3l-1.77 1.16c-.77.45-1.75.19-2.2-.58l-.11-.24a6.4 6.4 0 0 0-1.28-2.31 5.41 5.41 0 0 1-.68-1.36c-.22-.53-.63-.97-1.16-1.21-.47-.18-.83-.55-.98-1.03-.23-.68-.55-1.32-.84-1.98q-.66.28-.49.92c.33 1.11.82 2.18 1.46 3.15 1.11 1.51 2.04 3.13 2.77 4.85l.46 1.41c.29.68.59.76 1.22.39.06-.05.13-.08.21-.09h2.51l-.4 2c-.15.55-.41 1.06-.79 1.49a15.1 15.1 0 0 1-1.84 1.33c-.16.11-.3.25-.4.42l-2.09 3.94c-.18.34-.24.6 0 .88.97 1.05.69 2.31.7 3.59 0 .13-.22.31-.38.4-.79.36-1.51.88-2.09 1.53-.23.28-.39.62-.46.97a7.79 7.79 0 0 1-1.02 3.02l-2.21 4.16c-.13.31-.42.53-.75.55-.72 0-1.42.07-2.14.13-.31 0-.61.09-.92.12a.59.59 0 0 1-.39-.1c-.27-.2-.49-.44-.68-.61a4.23 4.23 0 0 0-.52-2.03l-.47-.65c-.46-.66-.72-1.44-.73-2.24-.04-.46-.17-.91-.4-1.31a6.21 6.21 0 0 1-.98-2.69c0-.54.12-1.07.31-1.57.06-.23.15-.45.28-.65.2-.43.24-.93.09-1.39-.34-1.6-1.01-3.11-1.98-4.43-.21-.36-.21-.8 0-1.16.15-.31.32-.6.51-.89.17-.27.16-.46-.16-.58a.78.78 0 0 1-.58-.66c-.09-.13-.24-.22-.4-.22a2.07 2.07 0 0 1-1.68-.61c-.33-.19-.71-.27-1.09-.24a2.84 2.84 0 0 0-.82.16l-3.8.91a1.82 1.82 0 0 1-1.7-.53c-.11-.13-.24-.24-.37-.35-.56-.34-.9-.93-.92-1.58-.05-.28-.23-.51-.49-.64-1.16-.37-1.31-1.41-1.62-2.31a.98.98 0 0 1 .21-.79c.3-.27.38-.7.21-1.06-.41-.96-.32-2.07.25-2.95a4.1 4.1 0 0 1 1.31-1.61c.22-.15.28-.53.49-.7.64-.59 1.09-1.35 1.29-2.2a2.72 2.72 0 0 1 .74-.88l1.42-1.28c.25-.23.43-.27.62.07a.47.47 0 0 0 .37.22l2.1-.29c.21-.06.42-.09.64-.12 1.01.02 2.01-.2 2.92-.64a.91.91 0 0 1 .65 0c.08 0 .08.32.07.49 0 .49.24.94.64 1.22l1.04.98c.06.07.13.16.21.17l2.11.3c.36 0 .59-.13.72-.55s.45-.57.69-.84l.07.15c.15.15.32.29.5.4.37.21.75.37 1.16.5.3.04.61.04.91 0a2.26 2.26 0 0 1 .52 0l2.21.35a.71.71 0 0 0 .66-.21c.66-.34.99-1.11.76-1.83-.07-.31-.11-.62-.14-.94-.47-.18-.99-.14-1.43.1a1.37 1.37 0 0 1-1.68-.15 3.47 3.47 0 0 1-1.51-1.99c.7.36 1.01-.08 1.34-.72l-2.47.6a.49.49 0 0 0-.38.57c.01.06.04.12.08.18a.65.65 0 0 1 .08.31c-.04.17-.09.34-.15.51-.23-.09-.55-.14-.65-.3s-.23-.6-.58-.72c-.06-.02-.1-.08-.12-.14.07-.75-.59-1.16-.9-1.66-.07-.14-.34-.21-.52-.22-.49 0-.95-.24-1.24-.64-.11-.17-.25-.32-.42-.44-.24-.2-.54-.32-.79 0a.57.57 0 0 0-.07.8c.02.02.04.05.07.07.43.51.97.9 1.58 1.16a1.53 1.53 0 0 1 .82.89c-.54.44-1.33.35-1.77-.19-.07-.09-.14-.2-.18-.31a4.92 4.92 0 0 0-.5-.61c-.3-.38-.63-.75-.97-1.1-.47-.42-1.4-.45-1.5.37 0 .09-.03.17-.07.25l-.31-.09c-.55-.21-1.17.02-1.44.54-.12.18-.29.32-.42.5a1.28 1.28 0 0 0-.32.45c-.15.67-.69 1.19-1.36 1.33a14.13 14.13 0 0 1-2.68.23.57.57 0 0 1-.38-.39c-.07-.61-.07-1.23 0-1.84.12-.64.7-1.08 1.35-1.03h1.87c.24 0 .39-.08.37-.36a1.71 1.71 0 0 1 0-.32c.13-.73.09-.82-.58-1.21-.2-.12-.42-.2-.61-.31s-.22-.17-.21-.25a.33.33 0 0 1 .22-.25c.24-.07.48-.11.73-.13a2.45 2.45 0 0 0 2.31-1.46c.19-.52.67-.89 1.22-.94.89-.14 1.04-.37 1.16-1.28a4.23 4.23 0 0 1 .24-.68h.2c.15.31.27.63.37.96.09.38.29.64.67.67a4.35 4.35 0 0 0 1.02 0l1.74-.25c.22 0 .35 0 .42-.32s.34-.42.53-.61.46-.29.47-.67.61-.75.95-.7c.19.05.35.16.45.32a3.24 3.24 0 0 1 .27.67c.6-.57.86-1.41.67-2.22a4.5 4.5 0 0 1-.73.15 3.42 3.42 0 0 1-1.01 0c-.97-.21-1.16-.65-.6-1.47.18-.28.38-.87.3-.94-.37-.27-.7.08-.96.31a4 4 0 0 0-1.32 1.98c-.18.69-.46 1.34-.83 1.94-.16.25-.64.36-.98.4-.14 0-.34-.28-.47-.46l-.36-.62v.15l-2.06.1c0-.12-.07-.2-.09-.29-.29-1.49-.43-1.28.99-1.85a5.17 5.17 0 0 0 1.16-.92l.97-.86c.06-.04.12-.09.17-.15.97-1.31 2.42-1.51 3.87-1.74a9.06 9.06 0 0 1 3.82.69l2.07.6c-.94.75-1.8 0-2.62.14v.1c.47.5.96.97 1.49 1.41.36.27.9 0 1.03-.47s.2-.43.5-.43c.4 0 .77-.25.92-.62.15-.31.36-.45.69-.32 0 .37.12.52.47.4.13-.04.26-.11.37-.18.42-.25.92-.36 1.41-.31.67-.04 1.34-.17 1.98-.4.42-.21.93-.12 1.26.22 2.86 2.98 5.3 6.34 7.23 10a43.52 43.52 0 0 1 4.56 13.87l.06.02zm-69.03-17.01l-.32 1.86a1.29 1.29 0 0 0 1.16-.59l2.31-3.19c.13-.16.24-.32.35-.5a2.05 2.05 0 0 1 2.31-1.05c.53.08.9.2.86.83 0 .09.23.25.38.28a3.54 3.54 0 0 0 2.01-.47 1.71 1.71 0 0 1 .09.3c.02.14.02.28 0 .42-.29 1.08.27 2.2 1.31 2.62l.21.1a4.55 4.55 0 0 1-2.83 1.24 4.2 4.2 0 0 0-2.08.55c-.54.25-1.09.45-1.65.62-.2.12-.37.27-.53.44l.07.14 2.09-.18c-.08.51 0 .81.54.87.2 0 .38.28.64.49-.91.18-1.36 1.16-2.5.94l.89-.83c-.43-.46-.53-.51-1.09-.16s-1.05.77-1.58 1.16c-.14.1-.27.27-.42.3-.92.16-1.38.92-1.96 1.53-.28.37-.69.62-1.16.67a.77.77 0 0 0-.5.18c-.16.14-.27.34-.3.55.08.8-.36 1.55-1.09 1.88a14.49 14.49 0 0 0-1.83 1.16c-.5.51-.64 1.27-.35 1.92.21.46.21.99 0 1.44 0 .12-.31.21-.49.22s-.28-.17-.31-.3l-.39-1.76a3.1 3.1 0 0 0-.3-.57l-.12.06v.67l-.12.08-.46-.49a3.54 3.54 0 0 0-.73-.54c-.28-.14-.61-.03-.76.24-.28.37-.58.72-.9 1.05-.24-.29-.49-.56-.76-.82-.12-.1-.28-.13-.43-.1-.55.09-1.05.38-1.41.81-.37.46-.79.87-1.25 1.25-.43.3-.57.88-.31 1.34a1.14 1.14 0 0 1 0 .58c-.22 1.12.47 2.23 1.57 2.53a1.25 1.25 0 0 0 1.51-.59c.12-.25.21-.52.31-.77.09-.29.4-.46.69-.37.03 0 .05.02.07.03.16.08.27.47.23.7-.1.44-.24.87-.4 1.29-.15.47 0 .68.46.8s.74.12 1.16.16c.36-.02.67.27.69.63 0 .06 0 .12-.02.18a7.31 7.31 0 0 0 0 1.62c.09.32.26.62.5.86.18.09.4.09.58 0a1.15 1.15 0 0 1 1.16-.1l.45.12c.66.16.84 0 1.28-.44.3-.28.64-.52 1.02-.69a.34.34 0 0 1 .32.08c.06.1.06.22 0 .32-.36.32-.16.49.16.62l.79.32c-.5-.81.16-1.09.46-1.57a1.85 1.85 0 0 1 .34.23c.44.48 1.08.73 1.73.68.89-.01 1.74.33 2.38.95.87.76 1.92 1.28 3.05 1.53.49.09.91.39 1.16.82.21.35.47.66.69.99.26.3.23.75-.07 1.01-.08.07-.17.12-.26.14l-.53.24c.15.28.3.36.57.21.18-.11.39-.19.6-.23.16.02.32.1.44.21l-.1.3c-.03.1-.08.25 0 .28a.53.53 0 0 0 .32.08c.09-.02.18-.07.24-.14.35-.41.96-.45 1.37-.1.04.03.07.06.1.1.06 0 .17.08.17.14.07.76.59.45.92.32.32-.13.69-.11.99.06.82.35 1.65.64 2.5.91a.61.61 0 0 1 .45.57c.17 1.32-.25 2.64-1.16 3.62-.06.09-.15.17-.25.21-.37.16-.4.46-.4.81 0 .86 0 1.72-.13 2.57-.11.53-.3 1.04-.54 1.51-.18.39-.37.8-.99.69-.28 0-.64.23-.91.43-.46.28-.88.63-1.25 1.03-.21.35-.36.75-.42 1.16-.16.74-.36 1.47-.61 2.18-.17.42-.67.68-.98 1.04-.48.67-1.39.85-2.09.43-.17.51.16.82.36 1.16.31.54.31.53-.21.9-.46.36-.9.75-1.32 1.16a1.25 1.25 0 0 0-.35 1.16 4.56 4.56 0 0 1-.15 1.16c-.05.19-.08.38-.08.58 0 .38.17.76.22 1.16l.18 1.93c0 .24.09.4.39.43.12 0 .27.15.32.27.17.36.31.74.47 1.16-.42.32-1.02.24-1.34-.18a2.11 2.11 0 0 0-1.09-.97 3.28 3.28 0 0 1-1.7-1.68 4.04 4.04 0 0 1-.74-2.52 1.31 1.31 0 0 0-.82-1.51c-.12 0-.21-.28-.23-.43l-.16-1.91-.37-4.03v-4.39c-.1-1.2-.92-2.21-2.07-2.55a1.28 1.28 0 0 1-1.04-1.32c.01-.56-.3-1.08-.8-1.33a3.04 3.04 0 0 1-1.42-1.71c-.09-.21-.23-.4-.39-.57-.37-.35-.53-.87-.42-1.36.02-.33 0-.67-.07-.99-.05-.22-.07-.45-.06-.68a4.5 4.5 0 0 1 .69-1.8 8.77 8.77 0 0 0 .98-1.87 1.72 1.72 0 0 0-.59-2.03c-.21-.1-.45-.1-.66 0-.44.27-.99.23-1.4-.08-.83-.53-1.51-1.26-1.98-2.13a.78.78 0 0 0-.34-.28 3.48 3.48 0 0 0-.64-.14 2.15 2.15 0 0 1-1.51-.74 2.2 2.2 0 0 0-1.81-.67.66.66 0 0 1-.28 0c-1.35-.35-2.57-1.07-3.54-2.07-.3-.39-.41-.89-.31-1.36.35-2.7.96-5.35 1.81-7.94 1.31-3.98 3.2-7.75 5.6-11.19.89-1.29 1.92-2.48 2.88-3.73.15-.18.3-.27.51-.12.3.17.65.22.98.13.79-.09 1.59-.06 2.31-.22.94-.2 1.86-.48 2.74-.86.66-.38 1.12-1.04 1.22-1.79.06-.21.13-.42.18-.62q.23-.76 1.03-.58l1.61.36c-.45.16-.92.31-1.38.5-.27.1-.31.28-.12.51s.61.79.95 1.16c.1.11.25.16.4.14.65-.26 1.35-.36 2.05-.28a4.37 4.37 0 0 1-.62.86 1.9 1.9 0 0 1-.86.37c-.8.16-1.62.27-2.43.39-.09.57-.58.98-1.16.97-1.04.16-2.02.61-2.83 1.29a1.32 1.32 0 0 0-.6 1.69c.08.25.16.58.58.38.07 0 .2 0 .29.08.38.2.76.42 1.16.61s.65.4 1.07.27c.08-.05.17-.05.25-.02zm12.35-10.84l2.87-.47c.4-.11.78-.25 1.16-.42.99-.48 2.1-.69 3.2-.6l3.11.3a1.14 1.14 0 0 0 1.06-.35c.1-.14.39-.16.6-.2l2.44-.36c.43-.06.86-.06 1.29 0l2.98.53a.78.78 0 0 1 .43.2c-.42 0-.83 0-1.24.09a2.48 2.48 0 0 0-.76.18c-.37.18-.72.39-.73.94s-.4 1.03-.94 1.16l-1.58.7c-.28.13-.28.28 0 .43l1.16.64q-.64.25-1.95-.35l.57.92-2.6.67c-.81.15-1.57.51-2.21 1.04-.64.45-1.39.7-2.17.74-.4.07-.74.15-.73.7-.05.23-.18.43-.36.58a4.38 4.38 0 0 1-.7.52 1.39 1.39 0 0 1-1.94-.3c-.18-.25-.28-.55-.27-.86-.04-.28-.04-.56 0-.83a3.63 3.63 0 0 1 .38-.96 1.47 1.47 0 0 1 .31-.35c.83-.68.95-1.91.27-2.75-.23-.28-.52-.48-.86-.6-.62-.38-1.32-.61-2.05-.69-.26-.04-.51-.13-.74-.27zm-7.6 1.16c.34-.58.7-.75 1.28-.49.57.3 1.23.35 1.84.14l.09.1c-.08.13-.15.31-.27.37s-.6.13-.88.23a.48.48 0 0 0-.29.3c0 .08.14.25.24.29l3.47.98c.11.06.19.16.21.29 0 .15-.03.31-.08.45-.18.83 0 1.16.9 1.16.01.3-.19.56-.49.61l-1.65.5c-.24.08-.51.16-.44.53 0 .07-.06.17-.12.23-.48.34-1.12.34-1.59 0-.3-.33-.27-.84.06-1.14.11-.1.25-.17.41-.2l1.01-.2c.15-.03.28-.12.37-.25 0-.08-.1-.28-.21-.37-.85-.77-1.95-1.21-3.1-1.24-.64 0-1.27-.1-1.91-.17-.27 0-.61 0-.64-.4-.05-.31.16-.61.48-.66h.14c.42-.02.83-.06 1.25-.13.17 0 .45-.16.47-.29.06-.3-.13-.5-.46-.5-.01-.14-.03-.14-.09-.14zm53.57 45.41c.4.94.45 1.99.14 2.97-.35.86-.55 1.78-.84 2.66-.1.26-.22.51-.37.75q-.44.81-1.33.65c-.71-.23-1.09-1-.86-1.71.23-.3.42-.62.58-.96.09-.38.09-.78 0-1.16-.04-.54.28-1.04.79-1.24a.88.88 0 0 0 .35-.17l1.31-1.36c.1-.13.18-.28.24-.43zm-42.44-48.59c-.79.61-1.72 1.01-2.7 1.16a9.91 9.91 0 0 0-3.81 1.5c-.38.23-.75.43-1.03-.15-.06-.1-.27-.16-.4-.18-.36-.04-.72-.1-1.07-.2a1.18 1.18 0 0 1 .35-.23l.91-.23c.3-.08.72-.15.84-.6a.66.66 0 0 1 .45-.38c.6-.14 1.22-.22 1.85-.32a4.57 4.57 0 0 0 1.16-.16c.68-.26 1.42-.37 2.15-.32h.68.66l-.02.13z"/><path d="M247.51 206.18c-.27-.4-.65-.59-.91-.42-.77.53-.83.67-.47 1.24l-1.53.58c-.12-.53.51-1.02 0-1.5.21-.36.61-.58 1.03-.57h.6c.32 0 .58-.13.53-.53a.65.65 0 0 1 .07-.36c.13-.18.27-.44.45-.47s.38.15.64.28c-.46.47-.27.74.14.95a.61.61 0 0 1 .24.21c.11.33.25.64.44.92a3.67 3.67 0 0 0 .92.53c-.27.24-.56.47-.87.67a3.25 3.25 0 0 1-.94.4c-.27.03-.54.03-.81 0v-.15l.57-.36c-.2-.24-.5-.45-.52-.68s.25-.46.42-.74zm-6.95-5.28a6.07 6.07 0 0 1 .59-.24l1.86-.49c.31-.07.65-.07.75.25s-.13.47-.29.58c-.36.24-.75.44-1.16.59a.88.88 0 0 1-1.09-.24c-.13-.16-.39-.2-.6-.3l-.07-.15zm-17.78 8.63c.49-.7 1.18-1.24 1.99-1.54l-.4.36c.18.08.36.12.44.22s.46.47.42.62a.63.63 0 0 1-.74.47c-.54-.09-1.1-.09-1.7-.14z"/></g><path d="M263.12 266.44l-.07.51c-21.02 12.63-48.29 5.83-60.92-15.18-12.63-21.02-5.83-48.29 15.18-60.92 4.79-2.88 10.08-4.83 15.59-5.74-3.14 2.59-6.02 5.48-8.6 8.63-.5.61-1.02 1.26-1.5 1.92s-.8 1.06-1.16 1.63-.58.84-.86 1.27a45.4 45.4 0 0 0-2.83 4.99h0a38.36 38.36 0 0 0-3.35 10.23c-.93 5.42-.48 10.98 1.32 16.18.89 2.63 2.05 5.17 3.47 7.57 2.14 3.68 4.62 7.16 7.38 10.4 16.78 19.51 36.34 18.52 36.34 18.52z" fill="url(#O)"/><path d="M222.71 174.15c-1.95.04-3.55-1.51-3.59-3.46-.02-1.07.45-2.1 1.28-2.78 5.41-4.5 18.86-10.5 31.12-1.16 1.6 1.12 2 3.32.88 4.92s-3.32 2-4.92.88c-.08-.06-.17-.12-.24-.19-10.82-8.26-21.85.59-22.32.97-.62.51-1.39.8-2.2.81zm-8.38-11.38c-.94 0-1.84-.36-2.5-1.03a3.53 3.53 0 0 1 0-4.98c.21-.2 20.58-20.26 46.65-1.61 1.6 1.13 1.97 3.34.84 4.94s-3.34 1.97-4.94.84c-21.1-15.08-36.87.18-37.53.84-.67.66-1.58 1.02-2.52.99zm52.76-13.25c-.75 0-1.47-.24-2.08-.67-31.38-22.91-58.09-1.1-59.21-.15-1.53 1.22-3.75.96-4.97-.56-1.17-1.47-.99-3.6.42-4.84.31-.27 31.97-26.39 67.93-.15 1.57 1.16 1.9 3.38.74 4.95-.66.9-1.71 1.43-2.83 1.43h0z" class="S"/></svg>