<svg xmlns="http://www.w3.org/2000/svg" viewBox="0 0 500 500" width="145" height="150" xmlns:v="https://vecta.io/nano"><style><![CDATA[.B,.A{isolation:isolate}.k{fill:#7d68fd}.l{fill:#ffb4a3}]]></style><defs><linearGradient id="A" gradientUnits="userSpaceOnUse"><stop offset="0" stop-color="#231f20" stop-opacity="0"/><stop offset="1" stop-color="#231f20"/></linearGradient><linearGradient id="B" x1="238.35" y1="243.88" x2="507.46" y2="232.97" href="#A"/><linearGradient id="C" x1="290.05" y1="415.88" x2="282.78" y2="217.09" href="#A"/><linearGradient id="D" x1="283.38" y1="301.2" x2="300.29" y2="437.31" href="#A"/><linearGradient id="E" x1="241.15" y1="95.51" x2="234.33" y2="182.54" href="#A"/><linearGradient id="F" x1="290.1" y1="94.8" x2="283.19" y2="182.92" href="#A"/><linearGradient id="G" x1="282.22" y1="90.5" x2="275.32" y2="178.61" href="#A"/><linearGradient id="H" x1="326.67" y1="90.5" x2="319.76" y2="178.61" href="#A"/><linearGradient id="I" x1="235.71" y1="111.62" x2="244.36" y2="191.19" gradientUnits="userSpaceOnUse"><stop offset=".02" stop-color="#fff" stop-opacity="0"/><stop offset=".32" stop-color="#fff" stop-opacity=".39"/><stop offset=".68" stop-color="#fff" stop-opacity=".68"/><stop offset="1" stop-color="#fff"/></linearGradient><linearGradient id="J" x1="235.98" y1="114.19" x2="244.63" y2="193.76" href="#A"/><linearGradient id="K" x1="282.96" y1="106.61" x2="291.61" y2="186.19" href="#I"/><linearGradient id="L" x1="305.05" y1="107.31" x2="313.56" y2="185.62" href="#A"/><linearGradient id="M" x1="236.26" y1="116.74" x2="244.91" y2="196.32" href="#I"/><linearGradient id="N" x1="259.31" y1="109.05" x2="267.96" y2="188.62" href="#A"/><linearGradient id="O" x1="236.54" y1="119.31" x2="245.19" y2="198.9" href="#A"/><linearGradient id="P" x1="179.45" y1="125.42" x2="236.15" y2="125.42" href="#I"/><linearGradient id="Q" x1="227.37" y1="125.31" x2="282.6" y2="125.31" href="#I"/><linearGradient id="R" x1="275.3" y1="125.31" x2="330.53" y2="125.31" href="#I"/><linearGradient id="S" x1="371.55" y1="142.12" x2="308.79" y2="111.41" href="#A"/><linearGradient id="T" x1="261.48" y1="355.78" x2="265.26" y2="418.81" href="#A"/><linearGradient id="U" x1="284.22" y1="262.7" x2="298.41" y2="377.07" href="#A"/><linearGradient id="V" x1="261.61" y1="298.84" x2="222.14" y2="309.26" href="#A"/><linearGradient id="W" x1="289.52" y1="304.45" x2="253.86" y2="313.86" href="#A"/><linearGradient id="X" x1="309.94" y1="296.77" x2="297.65" y2="328.25" href="#A"/><linearGradient id="Y" x1="302.72" y1="346.45" x2="290.42" y2="377.93" href="#A"/><linearGradient id="Z" x1="336.3" y1="290.84" x2="319.9" y2="332.81" href="#A"/><linearGradient id="a" x1="326.3" y1="340.13" x2="309.9" y2="382.11" href="#A"/><linearGradient id="b" x1="290.91" y1="245.93" x2="308.66" y2="313.47" gradientUnits="userSpaceOnUse"><stop offset="0" stop-opacity="0"/><stop offset=".99"/></linearGradient><linearGradient id="c" x1="146.83" y1="208.45" x2="209.39" y2="208.45" href="#I"/><linearGradient id="d" x1="115.15" y1="274.86" x2="170.55" y2="274.86" href="#I"/><path id="e" d="M227.58 145.29h23.57a11.9 11.9 0 0 1-23.57 0z"/><path id="f" d="M251.49 145.29h23.55a11.9 11.9 0 0 1-23.57 0h.02z"/><path id="g" d="M238.02 289.86h22.52v24.46h-22.52z"/></defs><g class="k"><path class="A" d="M451.24 371.51c-1.51 7.83-3.45 15.72-7.4 22.61-.37.64-.74 1.27-1.19 1.88v-.27l-390.79-1.07v1.69c-1.19-31.39-8.33-62.43-8.41-93.85a206.84 206.84 0 0 1 7.02-53.77c4.41-16.51 10.97-32.65 21.12-46.4 27.7-37.56 76.4-51.55 115.84-76.49 41.96-26.52 56.56-86.06 102.68-104.42 24.31-9.71 52.74-7.9 76.18 3.74s41.85 32.72 51.34 57.11c12.16 31.28 9.98 65.97 13.87 99.3 4.9 42.12 19.62 82.57 23.19 124.74 1.85 21.79.69 43.74-3.45 65.21z" opacity=".41"/><path class="B" d="M442.7,395.77v.5c-25.75,52.14-86.17,82.17-114.33,82.91l-196.81,1.67c-44.84,0-79.8-37.46-79.8-82.3v-3.89l390.93,1.12Z" opacity=".66"/></g><path d="M103.24 414.72c-2.31.88-5.12 2.96-4 5.16.5.77 1.23 1.37 2.08 1.7 23.51 12.4 51.04 13.94 77.59 15.25l103.51 5.06c16.45.8 33.66 1.46 48.6-5.45a98.16 98.16 0 0 0 16.12-10.1l21.18-15.62c1.75-1.31 3.57-2.83 3.96-4.99.39-2.47-1.52-4.85-3.83-5.84-2.38-.81-4.92-1.1-7.42-.83a1670.41 1670.41 0 0 1-68.63.96c-14.52-.08-29.08-.33-43.49-2.17-23.46-2.99-45.83-6.19-69.51-3.21-25.96 3.25-51.85 10.73-76.17 20.07z" fill="url(#linear-gradient)"/><rect x="190.49" y="83.74" width="181.83" height="316.79" rx="22.06" class="k"/><rect x="190.49" y="83.74" width="181.83" height="316.79" rx="22.06" fill="url(#B)"/><rect x="179.17" y="83.74" width="181.83" height="316.79" rx="22.06" class="k"/><path d="M347.28 120.01V353.1c0 9.67-7.84 17.52-17.51 17.53h-118.5c-9.67 0-17.51-7.84-17.51-17.51h0V120.01c0-7.97 6.45-14.44 14.42-14.44h124.67a14.45 14.45 0 0 1 14.44 14.44z" fill="#fff"/><path d="M347.28 275.68v77.42c0 9.67-7.84 17.52-17.51 17.53H226.05v-94.95h121.23z" class="k"/><path d="M347.27 275.68v77.42c0 9.67-7.83 17.51-17.5 17.53H226.05v-94.95h121.22z" fill="url(#C)"/><path d="M347.27,320.33v32.77c0,4.5-1.72,8.82-4.83,12.08h-112.61v-44.84h117.45Z" fill="url(#D)"/><path d="M191.95 105.72l-37.01 39.58h164.34l32.98-40.14-160.31.56z" class="k"/><path d="M212.25 105.56l-33.16 39.5 140.49.15H154.94l.99-.94 13.25-12.41 24.46-26.31 18.61.01z" fill="url(#E)"/><path d="M260.91 104.99l-32.93 40.07 140.49.15H203.82l1-.94 31.33-38.72 24.76-.56z" fill="url(#F)"/><path d="M308.05 104.99l-32.93 40.07-24.16.15 1-.94 31.33-38.72 24.76-.56z" fill="url(#G)"/><path d="M352.5 104.99l-32.93 40.07-24.15.15 1-.94 31.32-38.72 24.76-.56z" fill="url(#H)"/><g class="k"><use href="#e"/><use href="#e" x="-23.93"/><path d="M298.97 145.15a11.89 11.89 0 0 1-13.33 10.27c-5.31-.69-9.51-4.84-10.26-10.14h23.44l.14-.13z"/><path d="M319.46,145.15c-.57,5.95-4.95,10.55-10.26,10.55s-9.63-4.56-10.24-10.42h20.42l.08-.13Z"/><use href="#e" x="-47.73"/><use href="#f"/><use href="#e" x="-71.69"/></g><use href="#e" fill="url(#I)"/><use href="#e" x="-23.93" fill="url(#J)"/><path d="M298.96 145.29a11.89 11.89 0 0 1-13.33 10.27c-5.31-.69-9.51-4.84-10.26-10.14h23.45l.13-.13z" fill="url(#K)"/><path d="M319.39,145.22c-.56,5.95-4.93,10.57-10.22,10.57s-9.59-4.57-10.21-10.42h20.35l.08-.14Z" fill="url(#L)"/><use href="#e" x="-47.73" fill="url(#M)"/><use href="#f" fill="url(#N)"/><use href="#e" x="-71.69" fill="url(#O)"/><path d="M179.45 145.29l32.57-39.44 24.13-.3-32.8 39.74h-23.9z" fill="url(#P)"/><path d="M227.37 145.29l32.58-39.44 22.65-.51-31.33 39.95h-23.9z" fill="url(#Q)"/><path d="M275.3 145.29l32.56-39.44 22.67-.51-31.34 39.95H275.3z" fill="url(#R)"/><path d="M319.31 145.36l31.6-6.26 1.71-34.11-33.31 40.37z" class="k"/><path d="M319.57 145.03l31.6-6.26 1.73-34.11-33.33 40.37z" fill="url(#S)"/><path d="M250.56,378.04h25.32c3.72,0,6.73,3.02,6.73,6.73h0c0,3.72-3.02,6.73-6.73,6.73h-25.32c-3.72,0-6.73-3.02-6.73-6.73h0c0-3.72,3.02-6.73,6.73-6.73Z" fill="url(#T)"/><path d="M229.77 279.94h117.49v34.84H229.77z" fill="url(#U)"/><use href="#g" class="k"/><use href="#g" fill="url(#V)"/><path d="M267.11 300.46h22.52v13.86h-22.52z" fill="url(#W)"/><g class="k"><use href="#g" x="-3.2"/><path d="M267.57 301.86h17.5v12.74h-17.5z"/><use href="#g" x="-0.5" y="49.46"/><path d="M267.07 351.32h17.5v12.74h-17.5z"/></g><circle cx="306.08" cy="306.67" r="7.92" fill="url(#X)"/><circle cx="303.16" cy="306.67" r="7.92" class="k"/><circle cx="298.85" cy="356.35" r="7.92" fill="url(#Y)"/><circle cx="295.93" cy="356.35" r="7.92" class="k"/><circle cx="331.15" cy="304.03" r="10.57" fill="url(#Z)"/><circle cx="327.25" cy="304.03" r="10.57" class="k"/><circle cx="321.14" cy="353.34" r="10.57" fill="url(#a)"/><g class="k"><circle cx="317.25" cy="353.34" r="10.57"/><path d="M279.9,241.27c-3.88,4.16-6.13,9.52-8.33,14.8l-6.2,15.02c-.41.69-.48,1.53-.2,2.28.48.6,1.19.97,1.96.99,3.15.48,6.33.79,9.52.95,16.09,1,32.22,1.37,48.37,1.11,1.94.1,3.87-.23,5.66-.96,4.45-2.25,4.76-8.44,4.01-13.35-.9-5.73-2.5-11.32-4.76-16.66-.79-2.12-1.96-4.07-3.45-5.77-3.69-3.87-9.52-4.49-14.88-4.64-10.18-.25-24.06-1.99-31.7,6.23Z"/><path d="M268.06 237.83c-.21-1.13-1.24-1.92-2.38-1.83-1.4-.06-2.81 0-4.2.15-.9.02-1.76.35-2.45.92-.5.61-.81 1.35-.89 2.13-1.13 6.13.18 12.41.68 18.62.35 4.24.38 8.73 2.67 12.3a11.26 11.26 0 0 0 9.52 5.1c1.59 0 3.4-.58 4.01-2.05.25-.74.32-1.53.2-2.3-.82-11.15-2.43-22.8-7.15-33.05z"/></g><path d="M267.25,232.37c.75-1.62,1.77-3.09,2.67-4.64.25-.39.42-.83.49-1.28.06-.49-.19-.96-.62-1.19-.89-.35-1.61.89-2.53,1.08s-1.59-.55-2.2-1.19c-2.65-2.63-5.77-4.74-9.21-6.2-.36-.21-.79-.28-1.19-.17-.37.17-.48.82-.1.94-.37.03-.74-.06-1.05-.26-.33-.14-.82-.15-.98.18s.3.82.18,1.19c-.4,0-.81-.05-1.19-.19-.4-.07-.94,0-1.01.46-.03.15-.03.31,0,.46.05.62.05,1.25,0,1.87.19,1.66.88,3.22,1.99,4.47,2.21,2.74,4.2,5.66,5.95,8.71.42,1,.99,1.93,1.68,2.76.98,1.05,4.59,2.53,5.54.71.45-.86.08-2.74.25-3.74.27-1.38.72-2.72,1.33-3.99Z" class="l"/><path d="M316.34,257.5c.47,1.53.24,3.18-.63,4.52-1.04,1.26-2.84,1.51-4.47,1.59-7.94.42-16.04-.95-23.8.86-1.11.14-2.14.67-2.9,1.5-.66,1.17-.85,2.56-.54,3.87l.67,5.68-7.73-1.4c-.29-.04-.57-.14-.82-.29-.37-.35-.58-.84-.61-1.34-.63-2.96-.91-5.98-.82-9.01.1-3.05,1.3-5.96,3.38-8.2,1.97-1.75,4.34-2.97,6.9-3.57,5.95-1.71,12.21-2.21,18.41-2.71,2.68-.21,7.14-.81,9.44,1.01,1.92,1.55,3.06,5.22,3.53,7.5Z" fill="url(#b)"/><path d="M283.6 216.53c-.21 1.94-.14 3.91.2 5.83a10.94 10.94 0 0 0 6.58 7.53c2.38.94 5.2 1.19 6.83 3.13s1.55 4.52 3.22 6.14c1.79 1.5 4.37 1.6 6.27.25 1.83-1.38 3.05-3.41 3.41-5.68.34-2.24.47-4.51.39-6.77.04-3.02.29-6.03.75-9.02a44.43 44.43 0 0 0 .75-6.29c-.02-2.45-.49-4.87-1.39-7.14-2.01-5.29-6.15-10.07-11.64-11.47-5.15-1.27-10.52.94-13.28 5.47-1.38 2.22-1.25 4.49-1.42 7.14l-.69 10.87z" class="l"/><path d="M282.04,186.09c-.99-.4-2.32-.77-2.95.08-.22.36-.32.77-.3,1.19-.02,1.51.49,2.97,1.43,4.15-.99-.07-1.96.22-2.75.82-1.11,1.09-.56,3.02.42,4.22s2.32,2.18,2.9,3.57c.31.75.38,1.58.68,2.38.23.8.9,1.39,1.73,1.52,1.07,0,1.75-1.07,2.38-1.96,3.49-4.75,10.09-5.95,15.03-2.72,4.59,3.26,5.87,9.41,6.78,14.97.46.33.74-.56.92-1.09.4-1.19,2.26-1.08,2.93-.07.57,1.1.46,2.42-.26,3.43-.64,1.02-1.58,1.83-2.28,2.82-.21.23-.31.54-.3.84.06.26.21.49.42.65.57.57,1.17,1.1,1.81,1.59.47.47,1.12.71,1.78.67.45-.13.84-.4,1.12-.77,2.38-2.67,3.31-6.37,3.82-9.92.51-3.56.48-7.57-2.28-9.71-.55-.42-1.19-.73-1.69-1.19-.89-.88-1.62-1.91-2.17-3.05-2.97-5-7.55-8.84-12.98-10.9-2.45-1.15-5.18-1.53-7.85-1.09-2.74.82-5.68.67-8.32-.43Z" fill="#c14834"/><path d="M267.78,273.25c-.42.52-.8,1.32-.33,1.8.33.23.74.32,1.13.25l14.21-.84c.23,0,.46-.04.68-.12.71-.32.76-1.28.71-2.07l-.25-3.66c-.08-1.32.19-1.73-1.09-1.9-1.93-.09-3.86.18-5.7.8-3.63.92-6.9,2.93-9.35,5.76Z" class="l"/><circle cx="183.67" cy="208.46" r="31.28" class="k"/><circle cx="178.11" cy="208.46" r="31.28" fill="url(#c)"/><circle cx="147.77" cy="274.86" r="27.7" class="k"/><circle cx="142.85" cy="274.86" r="27.7" fill="url(#d)"/><g fill="#fff"><path d="M195.76 226.48h-30.02l5.09-27.15h20.57l4.36 27.15z"/><path d="M187.89 201.73h-12.87v-1.19c0-3.55 2.88-6.44 6.44-6.44s6.44 2.88 6.44 6.44v1.19zm-10.42-2.32h7.92c-.64-2.19-2.93-3.44-5.12-2.8-1.35.4-2.41 1.45-2.8 2.8zm-33.11 70.3c0 5.88-3.08 8.78-6.69 8.78s-6.46-2.78-6.51-8.33c-.05-5.54 3.05-8.7 6.72-8.7 3.89-.06 6.47 2.94 6.47 8.25zm-10.2.26c-.08 3.57 1.25 6.26 3.57 6.26s3.57-2.67 3.57-6.34c0-3.39-.99-6.21-3.57-6.21-2.32 0-3.57 2.83-3.57 6.29zm3.26 20.23l16.36-28.78h2.38l-16.35 28.77h-2.39zm25.06-8.95c0 5.87-3.09 8.78-6.64 8.78s-6.47-2.78-6.51-8.33c-.04-5.54 3.03-8.73 6.72-8.73 3.89-.04 6.42 2.95 6.42 8.27h0zm-10.2.25c0 3.57 1.33 6.26 3.64 6.26 2.49 0 3.57-2.65 3.57-6.34 0-3.38-.99-6.21-3.57-6.21-2.36-.01-3.64 2.77-3.64 6.28h0z"/></g></svg>